<?xml version="1.0" encoding="UTF-8"?>
<svg id="Layer_1" data-name="Layer 1" xmlns="http://www.w3.org/2000/svg" viewBox="0 0 96 96">
  <defs>
    <style>
      .cls-1 {
        fill: #bc902c;
      }

      .cls-2 {
        fill: #1b3a5c;
      }

      .cls-3 {
        fill: #bd912c;
      }

      .cls-4 {
        fill: #f7f8f9;
      }

      .cls-5 {
        fill: #b98f2d;
      }
    </style>
  </defs>
  <path class="cls-2" d="M76.75,0c1.19.53,2.51.52,3.75.87,6.31,1.82,12,7.37,14.25,13.5.59,1.59.82,3.25,1.24,4.88v57.75c-1.35,7.76-6.44,14.61-13.83,17.55-1.77.7-3.58,1.02-5.42,1.45H19c-7.76-1.35-14.61-6.44-17.55-13.83-.7-1.77-1.02-3.58-1.45-5.42V19C1.45,9.57,9.55.98,19.25,0h57.5ZM49.92,30.37c0-1.07-.86-1.93-1.93-1.93s-1.93.86-1.93,1.93.86,1.93,1.93,1.93,1.93-.86,1.93-1.93ZM66.54,31.21c0-.97-.78-1.75-1.75-1.75s-1.75.78-1.75,1.75.78,1.75,1.75,1.75,1.75-.78,1.75-1.75ZM30.45,34.54c0-.96-.78-1.74-1.74-1.74s-1.74.78-1.74,1.74.78,1.74,1.74,1.74,1.74-.78,1.74-1.74ZM83.75,50.25c.47-.48-.57-1.44-.88-1.74-5.01-4.89-15.49-9.13-22.32-10.43-17.51-3.33-41.43,2.93-47.36,21.73-.29.91-1.25,4.34-1.12,5.04.07.4.65.91,1.06.4.33-.42.9-4.07,1.2-5.05,3.1-10.08,12.51-16.83,22.24-19.76,14.45-4.36,30.26-1.67,42.62,6.76.65.44,4.13,3.5,4.57,3.05Z"/>
  <path class="cls-5" d="M83.75,50.25c-.43.45-3.92-2.61-4.57-3.05-12.36-8.44-28.18-11.12-42.62-6.76-9.73,2.94-19.14,9.68-22.24,19.76-.3.98-.87,4.63-1.2,5.05-.41.52-.98,0-1.06-.4-.13-.7.83-4.13,1.12-5.04,5.93-18.8,29.85-25.06,47.36-21.73,6.83,1.3,17.31,5.54,22.32,10.43.31.3,1.35,1.26.88,1.74Z"/>
  <circle class="cls-4" cx="47.99" cy="30.37" r="1.93"/>
  <circle class="cls-1" cx="64.79" cy="31.21" r="1.75"/>
  <circle class="cls-3" cx="28.7" cy="34.54" r="1.74"/>
</svg>