<?xml version="1.0" encoding="UTF-8"?>
<svg id="Layer_1" data-name="Layer 1" xmlns="http://www.w3.org/2000/svg" viewBox="0 0 1363.22 1532.49">
  <defs>
    <style>
      .cls-1 {
        fill: #d1ad5b;
      }

      .cls-2 {
        fill: #c3952a;
      }

      .cls-3 {
        fill: #dcc285;
      }

      .cls-4 {
        fill: #c3952b;
      }

      .cls-5 {
        fill: #c3942a;
      }
    </style>
  </defs>
  <path class="cls-5" d="M633.13,1532.49c-3.58-47.58-16.47-95.06-41.98-135.52-2.95-4.68-16.08-21.08-16.82-24.18-.55-2.32-1.07-8.08-1.25-10.75-.87-13.08,1.79-26.32.9-39.4-112.36-17.09-220.46-61.74-309.75-131.75C61.51,1031.94-42.89,767.45,16.62,512.47,79.54,242.86,307.87,48.94,578.8,7.65c227.87-34.72,466.39,50.41,619.85,220.82,221.34,245.8,215.03,606.28,7.46,858.49-104.99,127.57-252.21,212.68-416.84,235.67l-.57,48.93c-7.82,13.07-17.4,24.85-24.74,38.26-20.43,37.33-31.53,80.29-34.83,122.67h-96ZM683.15,723.48L994.12,187.99c-61.72-102.1-176.56-162.81-293.63-175.36-25.12-2.69-46.95.62-71.57,5.15-105.61,19.43-203.93,78.64-261.44,170.21,109,176.22,211.89,356.15,315.67,535.49ZM614.13,13.5c-28.33,2.05-56.26,7.73-84.01,13.47l-7.98,2.51c15.7-1.92,31.06-7.12,46.99-6.98l-1.99,1.98,2.41-.06,44.58-10.92ZM983.13,84.49c2.39,1.27,42.91,21.82,40,23.99-6.37-1.03-13.57-1.93-19.8-3.69-12.58-3.54-53.76-18.75-63.89-25.11-3.26-2.04-5.53-5.13-8.3-7.7l1.5-.51c11.58,3.8,22.92,8.72,34.47,12.54.98.32,3.22,1.37,3.01-.51-15.28-6.8-29.38-15.99-44.64-22.87-22.52-10.15-47.01-18.08-71.35-22.13l37.71,15.78c2.98,1.22,3.58,4.36,5.28,6.72l-1.5.5c-33.66-14.16-66.6-29.96-102.49-38.02,0-1.81,4.3-1.06,5.48-.98,11.44.84,23.12,4.71,34.14,5.87,1.1.12,3.6.9,3.37-.87-27.01-4.42-55.2-11.98-82.51-14-1.11-.08-4.65-.8-4.48.98,63.97,10.49,125.78,39.25,176.91,78.6,28.76,22.13,56.24,48.9,77.1,78.41l39.84-57.36c-27.74-19.05-59.4-32.61-89.83-47.18l-3.03.53c8.36,1.91,15.98,10.06,23.3,13.24,1.76.77,4.27.55,4.7.78-.04,1.99,1.17,4.07,1,6-.01.13-1.24.23-1,.99l10,2-6-4.99c.27-.4.59-.74,1-1ZM388.13,81.49c2.7-3.36,11.64-7.29,15.72-9.74,1.84-1.11,2.76-3.61,6.28-3.27.23-1.84-2.09-.87-3.03-.53-2.98,1.08-7.23,3.27-10.32,4.68-26.7,12.24-52.78,26.02-77.72,41.49l38.58,58.36c51.73-66.51,122.67-119.55,203.5-145.01.16-1.97-3-.74-4.05-.54-8.38,1.59-20.26,5.61-28.46,8.54-20.47,7.31-40.87,17.65-61.01,26-2.92.88-.73-5.04.21-6.05l40.31-15.94c.22-1.83-2.13-.86-3.22-.72-20.94,2.71-50.06,13.74-69.45,22.56-16.42,7.46-31.39,17.94-48.32,24.19l3.04.54c13.46-5.4,27.29-9.75,40.95-14.56l1,2c-.32.35-.68.65-1,1-3.92,1.53-7.04,4.85-10.79,6.71-14.03,6.97-35.83,14.72-50.96,20.04-9.7,3.41-19.95,6.93-30.25,6.75,3.06-2.29,6.25-4.49,9.47-6.53,8.26-5.22,25-15.87,33.52-18.98v1c-.1,1.11,1.09,1.27,2,1,.53-.16.86-1.65,1.15-1.76.75-.28,2.3,1.15,2.81.75.34-.26-.16-1.75.04-1.99ZM375.13,90.49c-.22.19-1.4-.12-1.99.01l.52,1.01c1.08.45,2.09-.93,2.47-1.02,1.04-.24,4.56-.54,4.93-1.09.48-.71.78-3.31-1.44-2.93-2.82.48-3.1,2.83-4.49,4.02ZM1199.13,247.49c-2.57-5.14-10.68-13.84-14.97-18.53-35.55-38.82-77.62-73.52-121.55-102.37l-39.31,64.25c.32,1.69,22.61,16.21,26.15,18.83,170.79,126.14,275.08,344.68,250.56,558.19-4.92,42.87-14.75,84.97-28.89,125.62-1.41-.12-1.75-4.49-1.87-5.62-1.8-17.94,2.23-23.19,6.2-39.55,26.94-111.05,25.72-214.95-12.58-323.08-45.41-128.19-130.94-250.07-247.12-322.62l-306.63,528.86c15.48-.01,31.07-.22,46.54-.95,62.21-2.92,124.66-8.33,186.92-11.08,50.72-2.24,102.53-1.02,153.03-4.97,52.15-4.08,96.08-31.77,126.32-73.68,22.26-30.84,32.13-65.3,39.2-102.31l6,14.48c3.49,8.82.56,19.5-1.51,28.53-14.3,62.41-62.26,121.34-122.26,144.74-41.06,16.02-93.84,12.1-137.79,14.21-66.57,3.19-133.31,8.07-199.97,12.03-33.8,2.01-67.71,2.78-101.49,5.02,42.41,68.41,84.64,137.3,132.18,202.31,30.82,42.14,73.62,100.01,126.81,113.19,3.11.77,16.62,2.17,17.59,3.43.88,1.14.23,1.98-.03,3.07-.48,2.02-6.31,18.29-7.02,19.02-2.82,2.86-18.86-1.77-23.05-3.01-67-19.88-127.69-112.14-166.3-167.7-34.93-50.27-67.77-102.12-99.69-154.33l-2.32,1.68c-54.14,83.55-107.22,175.13-172.65,250.35-30.1,34.6-67,69.59-114.93,74.81-2.26-.5-7.69-20.4-9.59-23.82,55.68-5.6,96.13-51.71,128.4-93.11,17.04-21.86,33.69-45.71,49.42-68.58,35.32-51.34,68.43-104.32,101.18-157.31-9.76-1.77-19.68-.58-29.54-.97-76.58-3.04-153.4-10.19-229.92-14.08-43.96-2.24-89.28-1.63-133.03-4.97-80.26-6.12-150.64-71.33-171.23-147.77-5.02-18.64-7.7-30.52.68-48.75.46-.99.61-2.35,2.03-2.46,3.32,13.32,5.53,27,9.3,40.21,19.62,68.95,78.53,129.03,152.23,135.77,56.73,5.19,118.5,3.3,176.03,5.97,55.23,2.56,110.75,7.43,165.97,10.03,15.63.74,32.75-.14,48.02.98,1.34.1,2.29.54,3.46,1.03l-.78-3.71c-103.84-175.38-203.42-353.43-311.69-526.1-114.65,76.35-200.19,194.63-245.53,324.28-38.9,111.23-40.04,234.35-3.18,346.24l-2.79,19.27c-32-85.12-41-181.27-28.87-271.35,6.19-46.02,19.02-88.79,36.39-131.61,48.67-120.01,128.74-226.13,237.41-297.67l-40.43-64.33C164.78,216.43,65.73,354.32,28.62,511.48c-18.16,76.92-21.81,158.06-10.32,236.34,3.18,21.68,8.06,43.1,11.84,64.66,1.79.23.97-2.24.86-3.36-.33-3.6-4.13-11.56,1.11-11.63,8.25,37.28,20.09,73.75,36.15,108.36l12.88,23.13c-4.24-14.46-2.32-34.96-7.32-48.69-1.39-3.82-7.09-9.63-9.51-13.49-5.3-8.43-10.69-16.98-15.05-25.95-2.52-5.18-16.82-39.75-15.02-42.24.23-.32,3.95-1.33,4.87-2.12,5.95,18.68,14.35,36.77,25.78,52.73.32.45,1.6,3.15,2.24,1.76-11.13-50.05-24.88-99.82-35.76-149.69l3.74-13.79c18.37,59.18,29.8,120.26,45.3,180.21,1.84,7.11,6.45,16.97,7.48,23.52,3.1,19.88-1.36,44.29,6.51,64.49,18.74,34.75,37.69,69.49,60.73,100.77.19.25,2.21,5.77,1.99,5.99-1.63,1.7-5.84-6.29-7.51-6.99-1.25-.52-1.87.22-1.48,1.48,58.65,77.03,132.46,140.07,217.32,186.69,9.76,5.36,20.17,11.44,30.67,14.82-2.38-3.6-10.18-2.39-9.89-7.5.2-3.5,12.7-17.03,15.71-21.18,29.69-40.94,53.8-86.63,80.37-129.63,34.39-55.64,70.83-119.31,131.81-148.68-2.17,8.97-.83,19.07-.16,28.26-.57,2.01-11.75,9.37-14.37,11.7-28.76,25.6-37.3,71.01-33.48,108.03,56.42,3.35,121.16-27.88,144.86-80.65,6.63-14.76,9.85-30.25,11.15-46.36,1.21-1.27,22.16,8.42,24.01,10.49,2.95,3.31-2.29,22.31-3.75,27.28-10.33,35.31-33.15,63.55-63.95,83.05-40.34,25.53-88.01,34.69-135.38,28.76-.89-.62-1.57-5.65-1.8-7.2-1.6-10.65-2.47-26.11-2.12-36.86.31-9.29,2.94-19.33,2.49-28.51-41.44,57.56-72.1,122.26-112.69,180.31-6.4,9.15-14.8,18.25-20.82,27.18-.56.83-1.42.95-.99,2.49,38.35,16.42,77.28,31.77,117.98,41.53,92.18,22.09,197.23,22.94,290.2,5.17,35.46-6.78,69.1-17.05,102.81-29.7.23-1.86-2.03-.79-3.04-.55-7.33,1.75-15.11,5.32-22.73,7.27-5.36,1.37-11.19,1.98-16.22,3.28-.31.08-.69-.08-1,0,12.62-10.42,30.24-8.99,43-17.99-17.42-5.28-35.56.58-52.99,2.98-.62-.6,2.05-8.28,3.68-8.81,19.32-3.74,39.94-9.57,59.69-6.07,3.09.55,13.09,2.72,13.65,6.36l-13.51,8.53,32.48-13.51c-52.93-64.41-87.87-141.06-136.49-208.51-.51,7.34,2.02,15.08,2.5,22.5,1.06,16.52-.85,33.33-3.63,49.54-47.59,7.47-95.81-3.97-136.36-29.07l20.49-17.75c12.34,7.63,25.28,14.42,39.3,18.48,16.92,4.9,34.81,6.79,52.29,6.85,4.78-23.94-.17-52.89-9.9-75.24-20.57-47.26-78.72-68.93-127.52-62.17-2.3.32-11.45,2.93-12.11,2.81-.52-.1-1.75-1.39-1.36-2.21,1.71-8.09-.02-16.66,3.05-24.52,68.65-16.42,131.95,21.7,173.72,73.31,58.72,72.56,95.5,162.07,154.22,234.8,3.64,4.91-1.16,5.89-4.17,8.65,94.96-45.27,176.81-115.69,240.99-198.51-.76-4.75-5.39,4.74-7.49,5.51-.74.16-.67-1.02-.48-1.48,1.22-2.97,6.78-8.99,8.86-12.19.79-1.22.8-2.79,1.13-3.33.56-.87,1.25-1.8,2-3,1.77-2.83,3.21-4.89,5-8,.39-.67,1.14-1.4,2-3,.74-1.38.74-2.47,1-3,.08-.15.65.88,2-2,.65-1.39.64-2.03,1-3,2.17-1.67,1.37.75,3-4,3.06-2.68,2.64-3.66,4-7,3.43-3.36,4.29-6.63,6-11,3.94-3.89,23.43-39.71,25.51-45.99,7.59-22.99,3.77-42.31,6.75-64.25.91-6.73,4.9-15.4,6.66-22.34,15.3-60.41,28.43-121.38,45.09-181.42,2.58-.27,1.59,0,2.03,1.46,1.06,3.61,2.72,12,2.51,15.59-.81,13.95-11.13,42.73-14.86,58.13-7.12,29.38-13.83,58.87-20.69,88.31.62,1.38,1.93-1.3,2.24-1.76,10.92-15.64,18.71-34.89,25.25-52.75.63-1.55,5.42,2.15,5.42,2.45-.02,2.6-5.55,17.41-6.89,21.08-8.08,22.11-19.31,41.16-32.51,60.49l-7.52,48.48c1.05,1.6,1.18-.75,1.53-1.45,5.14-10.25,11.06-20.96,15.66-31.36,10.74-24.29,18.54-50.83,25.54-76.46.87-3.18,4.42-21.49,5.31-22.21.12-.09,2.87-.11,2.97,0,1.05,1.01-2.52,14.08-2.89,16.61-.15,1.05-.84,3.64.89,3.39,2.98-18.02,7.64-35.8,10.7-53.81,28.65-168.65-12-340.61-112.29-478.08-8.91-12.22-20.42-28-31.39-38.11,9.27,18.54,31.45,41.2,43.42,61.08,1.03,1.72,7.98,10.48,1.58,8.92-.66-.8-1.89-1.64-3-3s-.67-4.76-5-4c-1.47-1.42-3.82-4.03-5-5-.31-2.55-2.71-4.4-4.48-6.02-5.49-5.05-11.3-10.19-17.05-14.95-7.94-6.58-28.86-19.29-33.91-25.09-3.64-4.18-5.76-13.78-9.56-18.44l1.48-.49c9.38,7.4,19.62,13.59,28.97,21.03,2.5,1.99,12.06,11.52,13.06,11.95,1.23.53,1.88-.23,1.48-1.48-19.07-23.87-40.1-45.79-62.98-66.03-.98-.87-8.33-7.17-9.01-6.48l21.17,34.32c11.14,24.67,28.2,52.15,36.14,77.86.59,1.9,1.8,3.21-1.32,2.81-7.13-6.84-13.86-14.27-21-21-2.96-10.1-7.66-19.83-12.14-29.36-5.97-12.69-12.67-25.05-19.79-36.42-.64-1.02-.78-3.94-1.08-4.22-1.01-.96-3.06.66-1.97,1.98.07.08,1.43-.26,1.93.75.71,1.42.84,3.36,1.75,5.02.27.48,7.48,9.68,2.81,8.23-13.98-8.68-28.2-16.93-41.84-26.17-7.79-5.28-35.68-24.07-39.69-30.31-6.18-9.63-1.26-39.26,11.67-40.28,6.75-.53,41.81,26.97,48.81,32.8,26.73,22.3,49.4,48.83,74.53,71.97ZM1101,167.62c-8.58.08-11.93,17.25-8.32,22.81,12.92,9.41,25.91,18.88,39.13,27.87,2.19,1.49,4.72,3.71,7.31,4.18,1.05-1.07-12.51-20.9-14.18-23.31-7.52-10.87-15.95-21.05-23.94-31.55ZM1136.12,196.48c.72-1.4-.63-2.67-.98-1.99-.72,1.4.63,2.67.98,1.99ZM92.5,967.13l-26.36-51.64c5.96,16.4,14.41,32.31,22.71,47.73,3.47,6.45,7.29,13.5,11,20,.61,1.07,1.68,1.19,2.19,2.06.94,1.61,1.06,4.54,2.6,6.19,1.94,2.14,1.82.59,1.07-1.07-.94-2.09-2.23-4.61-3.31-6.65-.57-1.08-1.74-1.2-2.19-2.06-2.5-4.81-5.35-10.04-7.71-14.56ZM1295.45,918.38l-37.14,71.17,2.08,1.09,37.14-71.17-2.08-1.09ZM1257.44,990.38l-2.88,5.81,1.47.73,2.88-5.81-1.47-.73ZM140.12,1045.48c.72-1.4-.63-2.67-.98-1.99-.72,1.4.63,2.67.98,1.99ZM143.12,1049.48c.5-4.16-1.48-4.16-.98,0h.98ZM1221.12,1050.48c.72-1.4-.63-2.67-.98-1.99-.72,1.4.63,2.67.98,1.99ZM1219.12,1053.48c.5-4.16-1.48-4.16-.98,0h.98ZM148.13,1054.48c1.02-1-1.95-4.01-2.99-2.99s1.95,4.01,2.99,2.99ZM775.13,1326.49c-62.21,9.39-125.83,9.59-188,0v38c62.19,7.73,125.92,8.66,188,0v-38ZM767.13,1379.5c-38.71,3.94-77.61,4.37-116.54,4.03l-54.46-4.03c21.89,32.17,36.9,68.7,44.54,106.95,2.89,14.46,4,29.08,6.4,43.6,23.11,1.7,46,1.11,69.07-.56,3.59-53.26,20.18-106.36,50.99-150Z"/>
  <path class="cls-5" d="M1244.13,1001.49c-4.73,4.67-3.56,5-6,11-.11.11-1.2-.43-2.07.63-1.37,1.67-1.35,4.66-1.93,6.37-1.83,1.6-1.14-1-3,4-1.48,1.14-.77,2.71-1,3-.13.16-.45-.44-2,2-.92,1.44-.79,2.63-1,3-.11.2-.79.76-2,3-.24.45-4.66,7.62-5,8-.13.15-1.52-.33-1.9.09-.52.58.16,2.45-.1,2.91-3.12,5.57-16.77,21.75-22.04,28.46-11.86,15.08-25.15,28.93-36.96,44.04l-15.99,12.5c-.43-2.02.44-2.67,1.45-4.04,5.64-7.66,17.28-17.25,24.06-24.94,42.25-47.93,83.24-112.94,86.48-178.52,3.54-71.83-42.83-141.47-116.63-151.35-4.3-.58-15.9-2.4-18.94-.22-6.82,4.9-4.37,34.06-5.66,42.34-1.86,11.94-10.45,32.95-14.26,45.74-3.03,10.19-5.85,27.58-9.76,36.24-.73,1.61-22.78,21.94-25.73,24.27-1.01.79-1.28,1.93-3.01,1.48,12.12-58.82,30.53-115.84,48.48-173.01,2.6-3.1,30.14.37,35.7,1.33,98.25,16.93,140.16,117.07,115.31,207.68-4.11,14.99-10.89,29.66-16.5,44Z"/>
  <path class="cls-2" d="M876.13,1286.49c-33.4,11.33-70.46,20.84-105.63,24.87-105.78,12.12-201.52-21.86-280.84-90.9-6.74-5.86-16.67-15.97-16.56-25.42.06-4.64,8.15-40.49,11.54-40.56l21.03,22.04c-2.11,9.03-4.07,16.93-1.26,26.19,5.62,18.53,41.79,40.41,58.2,50.8,31.58,20.01,60.68,35.83,97.51,44.49,49.79,11.72,101.7,12.16,152.01,3.48-.69-1.77-5.93-1.12-7.54-1.04-10.95.58-23.05,2.44-33.97,1.05-1.39-.18-2.9-.54-1.48-1.99l65.51-27c.38,1.96-.32,8.48-1.5,9.5-1.76,1.52-16.85,6.56-20.68,8.32-1.52.7-4.78,1.65-5.32,3.16,18.73-.62,38.62-5.52,55.96-12.52,13.07-5.28,24.18-15,39.03-11.97-18.61,14.63-42.56,20.27-64.99,26.52-.23,1.81,2.17.91,3.24.74,10.96-1.7,23.7-6.91,34.76-9.75.31-.08.69.08,1,0Z"/>
  <path class="cls-5" d="M433.13,72.49c2.52-2.96,7.43-10.88,8.63-11.87,2.27-1.86,21.9-9.6,23.37-8.14.09,2.05.15,4.05-.46,6.05-3.62,11.86-50.15,46.55-62.23,54.77-5.27,3.58-17.34,12.74-22.59,14.4-10.58,3.34-31.3-10.3-25.26-19.26.71-1.06,22.66-9.24,23.93-9.04.62.1,2.72,6.97,8.83,8.43,3.62.87,14.25-7.42,17.69-9.94,9.48-6.91,18.57-15.22,26.09-23.41.32-.35.68-.65,1-1s.69-.64,1-1Z"/>
  <path class="cls-4" d="M983.13,84.49c-.41.26-.73.6-1,1-.56.81-.42,1.17,0,1.99h-3c.17-1.92-1.04-4-1-5.99,1.82.95,3.46,2.18,5,3Z"/>
  <path class="cls-2" d="M388.13,81.49c-.19.24.3,1.74-.04,1.99-.52.39-2.07-1.03-2.81-.75-.29.11-.62,1.6-1.15,1.76l-2-1v-1c2.06-.75,3.71-1.4,6-1Z"/>
  <path class="cls-2" d="M431.13,71.49c1.02-.36,2.27-2.82,2,1-.31.36-.69.65-1,1l-1-2Z"/>
  <path class="cls-2" d="M375.13,90.49h1c-.38.09-1.39,1.47-2.47,1.02l-.52-1.01c.59-.13,1.77.18,1.99-.01Z"/>
  <path class="cls-5" d="M1214.63,525.49c-5.32-.54-35.1-9.98-37.58-13.42-1.99-9.26,0-19.23-2.92-28.57,14.87,6.03,32.94,16.39,49.51,15,1.41-.12,4.88-.34,4.34-2.32-.95-3.48-7.18-12.85-9.43-16.59-20.67-34.31-46.89-67.11-70.23-99.77-31.8-44.5-59.6-91.12-102.75-126.27-2-.45-3.83,4.69-4.61,6.29-6.49,13.35-13.47,33.08-11.57,47.92,2.17,16.95,16.64,30.88,25.56,44.44,15.53,23.63,22.56,48.71,25.2,76.8-.06,1.36-24.51-4.56-26.58-5.42-1.84-15.56-3.87-30.31-10.26-44.74-11.74-26.51-42.14-51.86-45.05-80.95-2.75-27.44,9.26-58.16,26.36-79.2,44.18,27.49,78.18,63.68,107.93,105.9,33.52,47.57,74.46,102.24,102.76,152.24,2.88,5.08,16.18,28.53,16.78,32.23,2.58,16.04-6.35,45.36-14.43,59.47-16.25,28.38-45.2,41.28-62.93,68.07-16.16,24.41-25.18,54.18-53.9,68.1-9.5,4.6-9.3,2.58-14.91-5.46-26.84-38.48-53.83-110.37-55.82-157.18-1.15-26.92,4.92-53.65,4.05-80.55.92-.91,23.48,4.23,25.31,5.19.77.4,1.21.44,1.56,1.44.39,1.13-.68,18.06-.88,20.86-.93,12.93-3.51,26-4.03,38.97-2.18,54.06,18.12,100.9,44.56,146.55,24.5-17.64,31.76-49.14,51.97-71.02,13.69-14.82,31.54-24.52,43.93-41.07,7.99-10.67,14.23-23.72,16.59-36.91-5.96-.43-12.63.59-18.5,0Z"/>
  <path class="cls-5" d="M131.13,525.49c2.91,12.74,8.9,26.36,16.59,36.91,12.36,16.96,31.38,27.28,45.39,42.61,15.55,17.03,22.56,38.7,36.61,56.39,2.01,2.54,12.76,14.81,15.37,13.04,12.62-25.42,26.32-50.61,34.55-77.96,2.02-6.72,4.32-22.87,6.63-27.37.8-1.55,21.85-19.8,24.87-22.13,1-.77,1.27-1.94,3-1.49-2.52,38.33-15.97,74.19-31.82,108.67-6.23,13.55-13.5,29.04-21.37,41.63-1.17,1.87-6.74,10.54-7.82,11.21-2.97,1.86-15.17-5.57-18.31-7.71-26.5-18-34.58-51.89-54.71-75.29-11.1-12.9-26.53-22.17-38-35-17.59-19.67-33.74-53.05-30.02-80.07.46-3.38,15.94-30.97,18.88-36.12,20.04-35.13,44.97-66.9,67.99-100.01,15.28-21.98,29.03-45.54,45.23-66.77,26.13-34.26,57.76-64.62,94.47-87.35,17.05,21.39,28.8,50.56,26.47,78.29-2.5,29.77-34.4,57.26-46.16,84.84-15.2,35.68-7.62,79.98-7.37,117.73-8.05,7.76-15.38,16.34-24.44,22.95l-4.05-48.46c-1.12-40.96-.26-79.68,21.62-115.46,9.05-14.8,27.04-32.47,29.14-49.86,2.3-19.03-7.07-38.66-15.23-55.23-21.73,17.67-40.91,38.8-57.9,61.1-11.35,14.9-20.88,31.05-31.77,46.23-28.11,39.17-68.82,86.98-89.99,129.01-.58,1.15-5.26,8.67-2.33,8.67h15c1.37,0,9-2.34,11.03-2.97l27.48-11.52c-2.82,9.27-2.68,18.96-3.5,28.5-.71,1.16-12,5.9-14.25,6.75-4.59,1.75-17.52,6.23-21.77,6.23h-19.5Z"/>
  <path class="cls-5" d="M728.14,720.48c20.59-58.17,62.93-110.19,116.5-140.99l5,29.03c-23.89,16.93-45.05,36.97-62.32,60.65l-15.18,23.31c72.14-2.76,173.76-39.65,184.85-121.64,3.85-28.48-4.31-58.58-18.69-83.03-1.45-2.47-11.55-17.88-12.8-18.27-1.33-.41-1.94.24-2.92.89-2.57,1.73-10.02,10.64-12.42,13.58-31.58,38.73-46.22,96.37-18.45,141.39,1.9,3.08,15.19,18.74,14.33,19.97-.5.73-12.82,8.9-14.61,9.92-11.33,6.41-11.21,4.03-18.72-5.89-50.72-66.99-15.84-167.86,46.52-214.31,2.28-1.69,7.08-6.42,9.87-5.14,3.65,1.67,18.23,21.15,21.42,25.65,54.49,76.96,47.92,162.98-31.08,218.71-54.52,38.45-125.51,51.3-191.31,46.18Z"/>
  <path class="cls-5" d="M165.13,991.49c6.92,13.67,36.28,36.45,49.54,46.96s26.8,20.51,40.14,29.86c21.6,15.14,68.38,47.89,94.67,46.13,29.47-1.98,15.24-32.77,6.06-47.86-12.52-20.58-30.14-40.43-47.4-57.08-1.59,6.56-3.15,13.27-6.13,19.38-1.21,2.48-5.08,10.34-8.17,9.5-1.89-.51-13.21-10.7-15.22-12.87-28.3-30.59-38.95-80.25-46.48-120.01,2.75-2.66,20.63,9.16,23.45,12.04,5.47,23.04,9.33,47,19.37,68.63.84,1.8,6.53,12.76,7.19,13.32.34.29,1.48.32,2.04-.56,1.32-2.09,2.77-15.65,2.94-18.94.61-12.18-1.76-24.35-1.5-36.49,4.06,5.75,23.06,20.2,24.3,25.7,1.1,4.91,0,11.74,2.33,16.67,23.87,25.08,47.77,50.92,64.4,81.6,14.67,27.07,30.31,73.25-19.01,69.01-31.1-2.67-76.34-31.99-101.83-50.17-19.64-14.01-39.3-33.47-58.77-46.23-1.22-.8-2.27-1.87-3.91-1.58l12.18,18.31c12.53,15.72,25.13,31.5,38.3,46.7,2.72,3.14,13.33,12.84,14.51,15.5.57,1.29-.06,1.64-1.36,1.37-3.55-.72-10.89-2.12-13.63-3.89-.32-.21-1.77-2.05-3-3-.22-3.4-4.09-4.94-6-7-1.33-1.44-2.94-2.82-4-4-16.87-18.8-39.16-46.06-51.17-68.33-1.11-2.06-5.49-9.83-5.75-11.27-.17-.91-.13-1.47.93-1.4-.64,2.95,3.26,3.41,1,0-5.86-8.84-16.12-17.77-22.97-26.53-11.22-14.34-13.6-18.44-15.96-37.06-.25-1.94,1.24-2.07,1.91-1.41.15.15.74,2.69,1.57,3.93,5.93,8.84,15.2,23.45,23.45,29.07,1.06.72,1.33.68,2,2ZM180.13,1024.5c-1.4-.72-2.67.63-1.99.98,1.4.72,2.67-.63,1.99-.98ZM188.13,1032.5c-1.4-.72-2.67.63-1.99.98,1.4.72,2.67-.63,1.99-.98ZM191.13,1034.5c-1.4-.72-2.67.63-1.99.98,1.4.72,2.67-.63,1.99-.98Z"/>
  <path class="cls-5" d="M524.14,899.48c1.09-9.84-2.32-19.47-2.54-28.98,31.51-20.88,59.31-48.01,79.53-80-29.77-3.23-59.59,1.35-88.22,9.27-48.62,13.47-102.89,46.36-112.79,99.72-.79.98-21.51-7.66-23.38-9.1-3.61-2.79.39-10.6,1.64-14.14,16.13-45.67,59.43-78.8,103.5-95.5,52.09-19.74,108.48-22.4,163.28-13.78,1.57,1.2.53,1.15.16,2.19-5.31,14.7-17.53,32.49-26.79,45.23-20.5,28.21-49.87,57.77-79.08,76.92-2.02,1.33-14.25,9.28-15.31,8.18Z"/>
  <path class="cls-5" d="M901.13,786.5c1.37,1.43-5.18,4.94-6.47,6.02-2.66,2.21-15.68,14.86-16.98,14.92-33.48-11.68-70.25-20.86-106.1-18-1.76.14-4.11.26-5.44,1.54,20.25,29.73,46.95,56.95,76.67,77.33,34.31,23.52,78.04,41.6,120.36,34.59,2.11,4.43,4.93,24.53,1,27.13-.61.4-12.36,1.4-14.5,1.5-82.64,4.05-174.85-68.93-215.35-136.73-1.91-3.19-14.96-26.65-13.19-28.3l54.46-5.05c43.4-.23,85.55,8.81,125.54,25.06Z"/>
  <path class="cls-5" d="M311.24,776.59c-.05,55.35,29.64,111.72,85.89,126.39,30.5,7.95,61.84-2,89.99-13.5,1.85,9.44.83,19.27.87,28.87-36.51,14.78-76.97,20.88-114.22,4.99-59.8-25.5-87-88.32-89.63-150.37-.15-3.59-.69-16.42.13-18.85.55-1.62,2.48-1.75,3.84-2.16,5.87-1.74,16.34-3.08,22.53-3.47,50.4-3.18,104.28,9.34,145.47,38.49l-25.48,15.43c-35.96-20.21-78-31.21-119.39-25.82Z"/>
  <path class="cls-5" d="M592.13,692.48c-36.51-60.17-103.02-121.11-179.04-106.41-3.46-8.78-3.09-18.46-4.96-27.57,20.17-4.74,41.87-4.13,62.02.48,63.21,14.45,120.61,71.58,151.16,126.84,3.2,5.79,14.33,27.11,14.68,32.38.08,1.21-.41,1.81-1.51,2.14-1.65.51-12.01,1.06-14.8,1.2-45.87,2.26-96.53-6.8-138.22-25.87-4.66-2.13-18.06-8.02-21.3-10.7-1.44-1.19-.98-.82-.04-1.99l20.51-18.21c34.64,17,72.98,25.58,111.51,27.72Z"/>
  <path class="cls-5" d="M1000.14,918.48c.44-9.52-2-18.86-2.86-28.29.56-1.9,10.52-8.12,12.87-10.2,29.78-26.36,41.87-65.54,42.99-104.52-71.34-7.52-162.07,30.45-177.01,107.01-1.29,1.14-24.55-12.02-25.53-14.01-1.37-2.76,5.04-17.73,6.68-21.35,31.74-69.95,120.32-103.56,193.4-99.68,4.99.26,24.36,2.16,27.8,4.2,2.66,1.58,1.81,13.75,1.7,17.39-1.62,51.4-17.71,102.35-58.57,135.43-2.06,1.66-20.3,15.3-21.47,14.02Z"/>
  <path class="cls-5" d="M1172.13,1038.49c-9.43,5.26-17.1,13.3-25.53,19.97-31.83,25.2-106.24,81.1-146.96,78.01-33.1-2.51-23.89-40.05-14.37-60.34,16.25-34.63,45.3-64.31,70.34-92.66,1.36-4.01-.07-8.39.57-12.43.99-6.23,20.06-20.49,24.45-26.55.96,16.62-3.32,37.52,1.46,53.54.34,1.14.29,2.94,2.01,1.44.98-.85,7.15-13.96,8.2-16.32,9.26-20.9,13.34-43.44,18.37-65.63,2.27-2.85,20.79-13.76,22.45-12.04-2.48,25.67-9.85,52.03-19.53,75.96-9.63,23.82-21.32,42.2-41.99,58.01-1.94.46-1.24-.55-1.74-1.24-6.15-8.52-7.9-17.59-10.63-27.36-.32-1.15.33-1.95-1.1-.88-15.72,11.64-54.79,61.43-57.76,80.25-2.45,15.54,4.62,23.51,20.28,23.34,33.19-.37,97.17-49.09,123.94-70.12,16.8-13.2,43.84-34.02,55.54-50.96.49-.71,2.15-1.13,3-3l2-3c1.09-.83,1.32-1.37,2-2,7.72-7.22,13.5-18.93,20.5-27,.95,2.04.6,5.14.37,7.37-2.32,22.38-23.04,37.53-35.88,54.62-.29.39-.66.67-1,1-.95-.06-1.38.57-2,1-4.4,3.03-7.06,9.7-13,14-.26.19-1.45-.46-3,1-1.03.97-.72,1.55-1,2Z"/>
  <path class="cls-5" d="M1024.13,354.48c-28.09.25-49.18,20.71-63.98,42.51,22.69,13.08,48.56,20.92,73.97,27.01,26.09,6.25,78.69,13.04,98.04,30.96,10.09,9.34,15.05,31.12,14.98,44.52-14.08-1.33-21.59,11.23-22.88,23.62-.64,6.16.89,14.37-.12,19.88s-19.98,6.77-22.5,1.49c-1.02-2.15-2.42-15.3-2.55-18.45-.44-10.73,1.22-28.84,7.21-37.87,1.33-2,6.67-7.58,8.79-8.24,7.61-2.39,21.85,10.75,23.04,9.57.38-1.8-.97-2.41-1.97-3.52-19.34-21.21-98.09-32.37-128.24-40.76-32.54-9.06-63.1-21.95-91.78-39.73,11.72-21.55,28.66-44.14,47.52-59.95,6.68-5.6,34.58-23.28,42.47-18.52l18,27.49ZM1143.12,494.48c.72-1.4-.63-2.67-.98-1.99-.72,1.4.63,2.67.98,1.99Z"/>
  <path class="cls-5" d="M748.13,944.48c-1.45,1.02-24.42-8.71-28.53-8.96-4.69-26.85-14.61-54.19-28.3-77.7-1.56-2.68-5.06-9.48-6.71-11.29-.82-.9-1-1.35-2.44-1.04-9.41,17.02-18.79,33.79-25.28,52.23-13.43,38.12-18.04,77.74-2.49,116.03,6.23,15.35,16.64,28.23,26.72,41.13-2.56,2.28-18.98,16.05-20.98,15.15-76.41-75.74-37.66-200.19,23.52-272.53,8.33,11.67,17.29,22.89,24.91,35.07,21.32,34.03,35.43,71.7,39.58,111.91Z"/>
  <path class="cls-5" d="M228.13,457.49c-.13.1-1.08-.34-2.06.66-8.61,8.73-14.87,35.8-13.98,47.88,1.47,19.88,19.76,49.21,42.45,46.38,10.33-1.29,31.83-23.02,40.11-30.89,22.66-21.5,45.59-45.21,62.5-71.5l41.97-15.52c-3.4,7.21-7.4,14.12-11.58,20.91-19.96,32.4-49.39,62-77.4,87.6-11.48,10.49-41.16,38.39-55.6,40.4-32.01,4.44-60.67-36.02-63.29-64.54-6.6-71.95,55.46-116.14,102.4-159.35l13.48-10.01c-4.12,7.59-9.21,14.77-12.86,22.63-2.81,6.05-5.34,17.28-8.11,21.89-2.17,3.61-13.24,11.33-17.04,14.96-13.46,12.83-33.18,32.27-40.99,48.51Z"/>
  <path class="cls-5" d="M412.13,1066.48c-4.07.14-17.83,5.86-20.54,4.11-26.76-39.97-54.62-79.3-87.95-114.11-11.87-12.4-53.77-52.96-69.1-54.9-14.04-1.77-13.26,17.73-12.29,27.29,6.1,60,69.64,121.64,123.63,142.37,2.78,1.07,8.87,2.1,10.58,3.18,1.57.99,5.46,11.63,6.16,14.09.52,1.84,3.16,8.18.02,8-7.19-.4-24.17-7.54-31.18-10.84-59.49-27.98-142.03-121.35-127.87-191.23,9.03-44.58,52.13-11.01,72.02,5.08,43.06,34.82,88.31,91.41,119.75,137.25,2.34,3.41,18.44,27.85,16.78,29.71Z"/>
  <path class="cls-5" d="M845.14,907.49l27.74,12.24c6.07,38.55,26.37,74.76,60.61,94.65,17.75-19.79,31.42-48.28,35.33-74.71,5.65-38.18-8.31-75.02-36.67-100.7l-19.01-14.98c4.3-2.95,19.75-17.56,24.28-16.37.84.22,9.29,7.09,10.73,8.34,22.16,19.37,37.89,43.54,44.5,72.5,13.69,60-14.53,115.98-53.51,159.58-55.09-26.24-93.84-77.98-93.99-140.56Z"/>
  <path class="cls-5" d="M1002.14,1095.48c-.84-.77,6.17-19.19,8.46-21.03s12.65-3.93,16.52-5.48c52.46-21.04,114.74-88.26,117.05-146.94.35-8.94-1.78-22.19-13.3-20.31-15.89,2.6-59.78,46.56-72.25,59.75-31.42,33.23-58.82,70-83.55,108.44-4.61,2.95-3.55-.08-4.66-.38-5.25-1.41-11.74-1.39-16.26-5.55,12.52-21.06,26.77-40.91,41.59-60.4,30.77-40.47,66.95-83.91,108.48-113.52,12.88-9.19,26.36-20.14,43.35-17.52,9.01,1.39,13.54,13.11,15.12,20.88,7.29,35.89-16.42,84.51-36.74,113.37-29.56,42-72.38,78.27-123.81,88.68Z"/>
  <path class="cls-5" d="M513.13,570.48c-9.74-3.22-19.33-8.04-29.08-11.65-4.32-34.88-21.01-67.7-47.89-90.34-4.22,7.2-9.47,13.65-13.54,20.98-26.44,47.55-26.32,101.09,12.49,141.55,2.51,2.62,13.82,10.25,12.92,13.76-.45,1.76-20.52,16.7-21.88,16.22-25.73-21-44.5-52.97-48.87-86.16-7.03-53.44,20.03-109.66,57.5-146.29,45.47,31.98,79.06,84.87,78.36,141.93Z"/>
  <path class="cls-5" d="M373.12,572.49l5.52,27.03c-12.71,9.82-23.84,19.57-33.32,32.65-8.12,11.21-18.96,30.31-22.5,43.57-.91,3.39,5.25,3.85,8.11,4.45,60.59,12.74,134.31-20.21,151.26-82.66,2.94-2.13,21.96,11.45,25.86,13.08-27.23,86.6-138.31,121.57-217.77,86.73,7.49-49.8,37.45-101.17,82.84-124.85Z"/>
  <path class="cls-5" d="M370.14,926.49l26.5,7.98c3.91,22.91,11.81,44.23,24.07,63.93,1.56,2.5,9.83,14.85,11.43,15.65s9.11-4.85,10.9-6.16c56.13-41.25,69.17-130.39,18.11-180.91,4.64-2.97,21.62-13.6,26.26-12.35,6.8,1.83,23.52,36.44,26.01,44.06,22.51,69.01-7.41,141.41-67.37,179.2-2.83,1.79-18.2,11.26-19.92,10.15-28.51-34.46-54.39-75.47-55.99-121.57Z"/>
  <path class="cls-5" d="M155.13,1056.49c-47.74-66.35-78.39-145.74-41.86-225.36,25.57-55.72,81.98-86.4,142.76-83.54,17.03,58.16,38.49,115.23,50.09,174.9l-29.23-26.26c-3.3-12.13-5.91-24.45-9.49-36.51-4.05-13.63-13.22-34.03-15.45-46.64-1.84-10.43,1.08-22.27-2.31-34.59-2.5-9.09-4.84-8.47-14-7.98-56.71,2.99-103.66,45.53-119.22,98.77-24.69,84.47,24.61,168.03,78.2,229.23,5.4,6.17,11.6,13.84,18.51,17.99.93.99,2.02,1.99,3,3,.2,5.68,7.5,7.71,9,12.99-1.18,1.12-12.51-9.56-14-10.99-.34-.33-.67-.67-1-1-.97-.97-2.06-2.02-3-3-1.63-1.69-3.55-3.44-5-5-14.62-15.67-34.42-38.52-47-56Z"/>
  <path class="cls-5" d="M1132.13,1107.49c9.4-9.1,19.62-17.3,31.99-22,.92,1.17-2.42,6.93-3.19,8.3-2.15,3.89-8.71,10.63-9.8,13.21-.66,1.58.91,2.16,2.01,1.01,42.66-49.53,94.65-128.32,73.44-196.48-13.32-42.83-47.45-78.44-85.98-100.02l-1.48,1.46-.05,55.48c-8.38.61-15.91,4.82-22.94,9.04,1.99-11.14,1.55-22.32,1.95-33.54.08-2.37,1.05-4.56,1.08-6.92.32-20.43-4.14-41.62,2.06-61.45,2.01-1.43,18.5,7.11,21.58,8.73,51.96,27.42,98.9,81.73,102.37,142.63,4.79,84.15-83.19,195.96-152.82,237.21l-4.22,4.33c-.35.21-.63.82-1,1-.52.26-2.28-.42-2.9.12-.44.39.06,1.67-.1,1.88-.29.38-.68.66-1,1-3.9.33-6.82,2.92-11,1.99,12.38-17.85,35.78-25.13,51.59-39.94,1.09-1.02,1.18-2.82,1.41-3.05.16-.16,1.55-.12,2.42-1.04,2.57-2.75,12.56-14.85,13.37-17.67.23-.8.73-3.01-.28-3.28-2.61,1.48-14.09,10.26-15.98,10-4.45-.62,5.61-7.1,4.48-9,1.49-1.1,1.97-1.25,3-3ZM1150.13,1110.49c-1-1.02-4.01,1.95-2.99,2.99s4.01-1.95,2.99-2.99ZM1143.12,1119.48c.72-1.4-.63-2.67-.98-1.99-.72,1.4.63,2.67.98,1.99Z"/>
  <path class="cls-5" d="M213.13,1116.49c-40.02-42.34-79.11-98.5-90.53-156.97-13.85-70.91,35.62-138.85,94.86-172.21,3.59-2.02,25.69-13.46,27.64-11.8,4.21,20.55,1.11,42.49,1.99,63.51l3.04,36.45-21.3-7.19-1.56-1.44-.13-55.37c-59.25,30.36-107.33,94.87-89.92,164.42,12.59,50.27,41.78,94.07,75.44,132.57,3.93-.04-2.59-6.48-3.32-7.68-2.63-4.3-5.02-8.76-7.19-13.3,11.34.39,18.43,10.59,28,14.99,1.06,1.18,2.67,2.56,4,4-.61,4.63,3.78,5.29,6,7,1.23.95,2.68,2.79,3,3-.17,2.13-.46,3.19-3.03,2.58-4.85-1.16-9.96-7.27-14.97-8.57-1.52,1.62,8.55,13.48,10.18,15.31,1.16,1.31,1.55,2.7,3.81,2.68.12.18,2.76,2.8,3,3-.77,2.95.71,2.51,1.84,3.65,11.13,11.17,25.23,17.4,37.49,26.52,4.07,3.03,10.62,7.71,11.67,12.82-3.62,3.18-22.71-12.16-26.73-14.98-16.94-11.88-35.47-24.75-50.26-40.02-.98-1.01-2.07-2.01-3-3ZM218.12,1114.48c.5-4.16-1.48-4.16-.98,0h.98ZM224.12,1120.48c.72-1.4-.63-2.67-.98-1.99-.72,1.4.63,2.67.98,1.99Z"/>
  <path class="cls-5" d="M729.11,1215.46l-25.87,3.91c-8.22-24.63-18.45-45.64-44.12-55.37-24.69-9.36-66.84-5.01-93.48-2.51-10.85,1.02-21.66,2.94-32.5,4-.52,1.98.83,1.93,1.68,2.81,2.21,2.26,6.31,5.03,9,7,26.15,19.25,56.28,32.78,87.31,42.2l-4.57,17c-51.02-14.6-103.7-40.61-137.38-82.53.18-2.51,18.51-5.76,21.63-6.32,32.01-5.73,62.45-6.93,94.88-7.13,52.67-.31,88.26-1.26,114.32,51.6,1.63,3.3,10.68,23.7,9.12,25.33Z"/>
  <path class="cls-2" d="M1322.13,635.49c.04-2.99-.04-6.01,0-9l1.5.99,12.48,37.01c-1.32-15.61-.99-30.68-3.13-46.35-1.93-14.1-5.43-29.97-9.36-43.64-.46-1.59-.99-5.45-2.48-6,.38,37.15-.53,74.37-.05,111.54.27,21.09,1.85,27.81-5.27,48.66-.36,1.05-.22,3.03-1.68,2.79-.25-6.15.28-12.38.03-18.54-1.51-37.1-2.05-74-2.01-110.9.03-27.85-.1-55.72-.02-83.55l7.74,17.74c16.91,43.29,23.09,89.88,20.24,136.24l-3-2.5c3.1,11.89,5.47,24.16,5.02,36.5,1.74.23.94-2.27.99-3.48.9-21.85.82-47.17.04-69.05-1.77-49.91-11.03-99.83-28.55-146.45l-11.49-24.01v103.5c0,4.09,7,17.87,7,21v36.5c-1.54-.56-2-4.38-2.49-6.01-4.31-14.14-14.16-41.15-15.5-54.5-2.63-26.15-.71-56.25-1.97-83.03-.83-17.6-3.37-35.33-4.08-52.92-.15-3.83.19-7.71.05-11.54.92-.13,1.27-.11,2.01.48,1.32,1.04,6.62,8.92,8.01,10.99,40.58,60.42,51.58,152.65,51.96,224.04.16,30.75-.94,65.38-5.13,95.85-.96,6.95-1.4,17.52-5.85,22.64l-.02-5.99-2,4.99-2.79-3.71,6.74-34.73c-3.04-14.75-4.37-30.04-8.22-44.77-5.25-20.05-8.85-24.27-8.71-46.79,3.58.58,1.89-2.42,0-4Z"/>
  <path class="cls-5" d="M878.13,1150.5c.65.86-3.6,5.97-4.48,7-15.26,17.97-39.39,35.46-59.84,47.16-45.01,25.73-99.57,41.07-151.68,35.82l4.15-15.85c47.68,2.79,92.61-10.59,133.53-33.97,12.03-6.87,24.49-14.85,34.32-24.68-10.7-1.94-21.65-3.47-32.5-4.49-23.27-2.18-53.02-4.81-75.98-1.99-3.53.43-17.38,4.17-18.81,3.83-2.03-.48-14.05-13.73-17.68-15.34,18.33-11.72,42.55-9.19,63.52-9.45,22.99-.29,46.65-.32,69.84,2.08,18.45,1.91,37.78,4.99,55.62,9.89Z"/>
  <path class="cls-5" d="M913.14,685.47c-.39-1.67.55-2.01,1.51-2.96,5.59-5.5,15.11-10.34,21.16-15.81,32.24,16.48,69.11,20.04,104.33,11.78-9.16-31.41-29.99-59.1-56.56-78,2.2-8.25,2.66-17.18,4.61-25.45.27-1.13.35-1.89,1.47-2.55,44.61,25.72,73.4,73.49,83.31,123.42-.81,3.47-28.04,10.39-32.63,11.29-43.45,8.54-89.83,2.5-127.2-21.72Z"/>
  <path class="cls-5" d="M1080.14,531.49c1.19-1.34,11.96,10.67,13.52,11.97,13.57,11.23,23.76,12.75,37.99,1.05,54.33-44.67-8.22-107.38-42-140.05-2.91-2.82-10.46-7.76-12.41-10.59-2.29-3.32-4.81-14.18-6.95-19.05-3.84-8.74-9.24-16.65-13.16-25.33,30.46,25.24,62.66,51.05,86.95,82.54,20.71,26.86,32.47,52.76,28.77,87.68-2.95,27.77-32.35,69.13-63.77,63.32-5.73-1.06-21.67-10.12-25.5-14.5-5.82-6.65-2.53-28.1-3.45-37.04Z"/>
  <path class="cls-5" d="M313.13,427.49c31.2-5.43,62.01-14.59,89.98-29.49-14.1-22.11-36.91-43.78-64.97-42.51l18.5-27.98c3.99-3.32,18.2,2.88,22.87,5.11,27.89,13.31,52.91,45.68,65.7,73.24-39.58,26.19-85.78,40.37-132.08,49.64v-28Z"/>
  <path class="cls-5" d="M122.13,315.49l-5.01,2.99c-1.98.18-.59-1.82-.21-2.7,4.37-10.09,16.59-26.26,23.4-35.61,32.14-44.13,84.09-98.2,129.5-128.5,3.77-2.52,14.07-9.75,18-8.46,12.86,4.23,16.89,30.26,10.68,41.03-18.76,15.56-38.69,29.84-59.44,42.66-7.73,4.77-15.73,9.64-23.92,13.57l11.5-18.99,45.01-30.99c3.12-5.1-3.42-26.5-9.53-22.55-31.85,37.81-56.41,81.35-73.99,127.54-1.38,1.32-2.3,2.52-4,4-3.23-.59-3.53,1.53-5,3-3.4,3.39-4.16,7.33-9,9h-2c9.49-26.72,21.53-52.68,34.83-77.67l21.17-34.32c-1.87-.43-2.37,1.05-3.5,1.99-12.47,10.43-27.9,24.26-39.03,35.95-10.09,10.58-18.37,22.96-28.46,33.57l1.48,1.48,41.03-31.98c4.3.48-1.45,5.6-1.79,6.26-1.75,3.36-4.11,10.16-6.29,12.66-4.04,4.64-21.43,14.86-27.9,20.1-7.06,5.71-16.02,13.31-22.05,19.96-1.13,1.24-2.5,2.04-2.48,4.02-.5,1.63-2.01,2.09-3,3-3.98-.78-3.18,1.92-4,3-2.07,2.73-4.14,3.93-6,6ZM227.12,197.48c.72-1.4-.63-2.67-.98-1.99-.72,1.4.63,2.67.98,1.99ZM150.12,277.48c.72-1.4-.63-2.67-.98-1.99-.72,1.4.63,2.67.98,1.99Z"/>
  <path class="cls-5" d="M1231.13,305.49c1.18.97,3.53,3.58,5,5s2.14,4.08,5,4c1.11,1.36,2.34,2.2,3,3,13.3,16.22,24.96,36.61,33.86,55.64,2.13,4.56,7.54,15.55,8.13,19.88.22,1.64.18,1.62-1.32,1.33-3.63-.71-18.25-5.41-20.12-7.9l-9.55-24.45,9.52,4.48c.68.22.69-.82.48-1.47-3.62-11.41-25.09-41.26-33.96-50.04-1.16-1.15-2.13-2.79-4.02-2.47,4.24,8.94,9.95,17.19,14.52,25.97,27.04,52.03,42.87,110.96,36.98,170.02l-84.5-172.5,3.05.18c5.22,8.45,15.64,13.98,20.74,22.03,9.73,15.35,15.59,36.44,24.34,52.66l22.85,43.64c-5-54.77-26.82-107.44-55.97-153.52-2.96-4.67-11.39-14.43-13.01-17.99-.24-.53-.19-1.69.49-1.48,6.14,4.11,11.74,8.99,17.78,13.22,5.09,3.57,11.88,6.79,16.73,10.77ZM1226.12,311.48c.72-1.4-.63-2.67-.98-1.99-.72,1.4.63,2.67.98,1.99Z"/>
  <path class="cls-5" d="M135.13,303.49l31.51-21.99c.74-.16.68,1.05.49,1.48-2.16,4.75-10.95,14.97-14.41,20.6-27.86,45.37-49.99,96.07-53.57,149.91l17.85-33.64c10.66-17.4,18.55-50.59,31.14-65.36,4.96-5.82,12.63-13.26,18-19,4.96-1.44,1.38,3.82.47,5.97-20.46,48.42-46.89,102.13-70.93,149.07-2.02,3.95-6.48,13.37-8.71,16.29-.86,1.13-1.05,2.05-2.83,1.66-3.83-63.55,11.93-121.59,41.47-177.02,1.15-2.15,11.28-18.2,10.52-18.97-1.9-.32-2.85,1.32-4.02,2.47-7.71,7.61-17.53,22.22-23.39,31.61-2.45,3.93-9.49,14.79-10.57,18.44-1.32,4.45,8.93-2.72,9.99-2.01-3.6,5.6-6.3,19.56-9.97,24.03-2.41,2.93-15.58,6.5-19.67,7.35-1.45.3-1.68.23-1.3-1.31.9-3.64,3.5-9.31,5.08-12.93,9.64-22.08,23.78-46.75,39.86-64.64,1.86-2.07,3.93-3.27,6-6,2.52.23,2.9-2,4-3,.99-.91,2.5-1.37,3-3ZM138.12,311.48c.72-1.4-.63-2.67-.98-1.99-.72,1.4.63,2.67.98,1.99Z"/>
  <path class="cls-4" d="M42.13,657.49c-1.14,9.09-8.05,24.47-10.51,34.99-2.73,11.65-5.24,24.02-5.5,36.01l-1.98-3.99c.4,5.7,1.45,11.4,2.47,17.02,1.16,6.4,4.96,17.44,5.31,22.75.1,1.49-1.07,5.19-2.29,5.21-1.97.03-.6-5.14-2.49-4.97.11.75.58,9.77-2,7-1.1-1.18-4.58-25.79-5-29.51-10.44-93.34-6.92-233.56,47.36-313.62,2.2-3.24,4.75-6.67,7.35-9.59.59-.66-.06-1.93,2.28-1.28-.98,11.46-.43,23.07-.95,34.54-1.71,37.27-5.47,74.4-4.15,111.85l-17.39,59.61c-2.41,2.15-1.28.45-1.12-1.11.48-4.58.58-8.33.61-12.9.04-5.7.82-12.69-1-18,1.01-8.34,7.08-18.15,7.99-27.51.8-8.21-.95-16.2-1.04-23.94-.23-19.75.46-39.41,1.09-59.01.2-6.16-.22-12.38-.05-18.54l-7.17,13.32c-24.48,56.62-33.87,119.57-33.86,181.22,0,13.49-.41,40.32,2.04,52.46l-.99,12.99c1.93.13.63-2.84,1.01-4.32.4-1.56,2.96,1.15.98-5.68-2.6-14.47.39-27.88,3-42l15-42c.62,9.46-1.29,19.83,1,29Z"/>
  <path class="cls-5" d="M660.61,1168.61c7.04,3.57,14.46,6.98,19.36,13.51-8.42,17.51-16.91,35.13-21.56,54.14-4.85,19.85-7.63,38.35,14.36,48.07,18.51,8.18,37.42-3.4,39.35-23.37.59-6.13-1.19-11.65-.56-17.56l24.11-4.71c4.95,11.46,2.95,28.1-4.11,38.71-7.5,11.28-29.95,22.39-43.2,23.88-9.8,1.1-34.48-7.87-42.56-13.99-25.43-19.24-18.48-43.2-9.69-69.35,5.86-17.42,13.55-34.55,24.5-49.35Z"/>
  <path class="cls-5" d="M163.13,989.49c-.95-3.96-5.36-6.15-6.55-9.95-7.66-24.57,1.1-64.42,18.57-83.52,4.5-4.92,8.41-10.02,15.02-4.07s6.61,29.17,8.27,38.73c5.07,29.08,21.74,84.94,48.67,100.33,4.47,2.55,10.77,3.95,14.52,6.48,3.02,2.03,16.54,15.8,19,19,.77,1,1.94,1.27,1.49,3-16.07,4.1-31.22-4.43-43.01-14.48-14.86-12.67-24.62-27.33-33.51-44.49-11.1-21.43-19.63-44.06-23.49-68.02-4.34,5.62-7.81,15.03-9.33,22.16-3.54,16.54.25,30.68,3.33,46.84l-10.99-10c-.67-1.32-.94-1.28-2-2Z"/>
  <path class="cls-5" d="M1207.13,984.49c-.68.63-.91,1.17-2,2-.22.17-1.53-.34-1.9.09-.51.58.16,2.35-.1,2.91-.85,1.87-2.51,2.29-3,3-5.01,1.5-7.57,7.44-11.99,10,5.19-17.93,9.31-37.32,3.02-55.53l-7.02-14.46c-5.07,24.08-13.04,48.22-24.49,70.01-13.75,26.16-40.87,62.33-74.52,55.97-.45-1.73.72-2,1.49-3,2.28-2.96,16.29-17.26,18.99-19.01,3.22-2.08,8.54-2.96,12.19-4.81,27.53-13.96,46.75-77.02,51.05-105.95,1.28-8.61.1-33.74,11.01-36.05,5.67-1.2,13.97,10.19,16.9,14.69,14.74,22.66,18.92,54.54,10.37,80.13Z"/>
  <path class="cls-5" d="M290.13,1185.49c13.96,11.03,28.89,21.27,44.33,30.17,3.08,1.77,14.81,8.96,17.1,8.82,4.32-.27,9.83-8.29,12.39-11.68,11.4-15.07,22.71-35.52,31.71-52.29,5.23-9.75,16.68-29.74,19.7-39.3,2.72-8.59-3.04-13.16-5.21-20.72,3.85,1.56,18.84-5.19,20.87-3.88,3.55,7.67,8.24,15.09,10.16,23.4-11.91,28.44-26.81,56.43-43.62,82.4-5.52,8.53-12.97,19.96-19.45,27.55-1.36,1.6-9.6,10.12-10.68,10.4-2.72.7-21.52-11.17-25.21-13.45-23.31-14.44-44.5-31.18-65.59-48.41-2.48-2.03-7.35-3.4-9.49-6.52l3.99-1.49c.35.32.66.68,1,1,1.15,1.08.67.81,2.64,2.31,1.26.96,1.29,3.55,4.36,2.69.32.34.66.68,1,1,.5.48,1.14,1.18,2,2,.34.32.63.7,1,1,1.79,1.45,3.09,3.82,6,4,.34.51.27.7,1,1Z"/>
  <path class="cls-5" d="M1100.13,1165.49c2.37-.33,4.5-.09,2.02,2.52-9.02,9.53-26.77,22.07-37.71,30.29-13.46,10.12-28.67,21.26-43.01,29.99-4.42,2.69-14.19,9.12-18.36,10.65-6.58,2.41-13.11-9.26-16.76-14.14-23.85-31.93-44.88-68.12-60.23-104.8,1.62-8.44,7.36-15.38,10.16-23.4l20.87,3.89c-4.59,11.24-8.06,12.6-3.17,24.67,11.8,29.16,31.58,61.4,50.36,86.64,2.06,2.76,8.29,12.6,11.29,12.67,1.4.03,19.54-10.79,22.44-12.57,6.19-3.8,12.48-7.78,18.08-12.42.73-.3.66-.5,1-1,2.81-.3,4.17-2.25,6-4,.34-.33.66-.68,1-1,2.91-.12,4.25-2.66,6-4,.39-.3.67-.76,1-1,.73-.54,1.74-1.04,3-2,.39-.3.67-.75,1-1,.67-.51,1.79-1.08,3-2,.39-.3.67-.75,1-1,.84-.64,1.88-1.12,3-2,.41-.32.69-.75,1-1,.56-.44,1.66-.92,3-2,.93-.75,1.52-1.61,2-2,.57-.46,1.52-.71,3-2,.36-.31.65-.69,1-1,.38-.34,1.37-.32,3-2,.33-.34.7-.63,1-1,3.13-.07,2.74-2.71,3-3,.32-.36.67-.66,1-1Z"/>
  <path class="cls-5" d="M696.14,1302.48c-.24-1.44,1.74-1.35,2.78-1.69,48.74-15.68,73.22-26.77,116.13-54.88,14.75-9.66,44.96-26.86,47.85-45.16.98-6.18-2.8-23-2.29-24.24.87-2.1,9.13-7.97,11.55-10.5,1.03-1.07,10.31-13.04,10.96-12.52,3.97,13.81,14.36,37.69,7.83,51.32s-44.29,38.06-57.91,47.09c-27.01,17.93-88.58,54.26-120.41,52.57-5.25-.28-11.1-2.27-16.5-2Z"/>
  <path class="cls-5" d="M228.13,457.49c6.46-5.28,15.29-10.29,23.01-13.49,5.4-2.23,21.81-7.94,26.92-8.13,3.56-.14,1.07,4.64,1.02,7.08-.12,6.81.28,13.65-.05,20.45-16.32,3.72-34.95,9.71-48.23,20.27-1.34,1.06-9.6,7.59-5.18,7.82,11.22-8.05,21.24-19.69,31.71-3.69,6.35,9.72,8.32,26.84,7.85,38.24-.11,2.63-1.75,17.12-2.54,18.46-2.92,4.99-19.58,4.06-22.02.01-1.43-2.37-.11-16.25-.5-20.5-.96-10.48-5.8-20.66-16.62-23.44-2.21-.57-6.69.36-7.29-1.71-.66-2.26,2.53-17,3.43-20.36,1.93-7.15,5.31-14.37,8.5-21ZM223.12,493.48c.72-1.4-.63-2.67-.98-1.99-.72,1.4.63,2.67.98,1.99Z"/>
  <path class="cls-5" d="M188.13,295.49c34.06-32.53,76.41-75.15,118.33-96.17,3.6-1.81,8.66-4.83,12.66-4.34-28.71,27.06-59.93,51.34-89.01,77.99-21.41,19.62-44.19,41.35-63.99,62.51-5.37,5.74-13.04,13.18-18,19-2.28-.39-3.05.76-4.54,1.96-5.91,4.77-11.26,10.09-17.57,14.43-1.19.82-7.13,5.32-7.89,4.6,4.05-6.73,6.51-16.54,10.43-23.06,2.64-4.39,12.3-10.39,16.58-14.42,7.89-7.42,15.15-15.55,22.98-23.02-3.98-1-.66-1.63,0-3.5h1c-.4,2.83,1.4,2.83,1,0,4.84-1.67,5.6-5.61,9-9,3.26.71,3.61-1.79,5-3,1.7-1.48,2.62-2.68,4-4Z"/>
  <path class="cls-5" d="M1233.13,683.49c.77.81-2.75,20.89-3.55,21.94-1.12,1.46-9.97,5.35-12.76,7.24-6.49,4.39-12.34,9.59-17.67,15.31,20.52,15.47,42.54,25.23,60.39.41.8-1.11,2.91-7.61,4.58-5.91.64.65,3.75,16.14,3.78,17.8.11,7.13-15.01,19.52-21.49,21.97-25.53,9.66-57.12-12.82-73.12-31.42,12.83-21.05,36.25-39.82,59.84-47.35Z"/>
  <path class="cls-5" d="M132.13,764.48l2.13-20.87c7.3-1.87,14.37-3.68,20.89-7.61l9.96-7.99c-14.96-16.56-48.27-37.5-64.47-11.53-2.88-1.4-5.27-19.03-4.3-22.29.76-2.57,8.75-8.44,11.4-9.59,18.44-7.96,45.51,7.41,59.4,19.37,3.87,3.33,22.42,22.46,22.78,26.17s-16.16,17.08-19.88,19.76c-11.07,7.98-23.95,14.21-37.91,14.58Z"/>
  <path class="cls-5" d="M1174.13,293.49c7.14,6.73,13.87,14.16,21,21,5.48,5.25,10.43,11.27,15.99,16.51,5.99,5.66,19.41,14.61,23.45,20.55,1.42,2.09,10.35,21.98,9.55,22.93-4.03-2.28-7.8-5.2-11.45-8.04-26.37-20.52-48.7-45.86-73.02-68.98-36.17-34.39-75.15-68.35-113.17-100.73-1.18-1-1.21-1.69-3.35-1.25-.18-1.99,2.9-.6,3.81-.31,37.44,12.2,97.55,70.36,127.19,98.32Z"/>
  <path class="cls-5" d="M126.12,679.48c-4.1-1.13-8.38-1.66-12.55-.28-3.83-8.58-6.24-18.48-10.27-27.39-1.81-4.01-4.05-9.35-7.16-12.33l-3.05,33.46c.14,20.8-.2,45.82,15.5,61.58,1.39,1.39,7.09,4.78,7.31,5.17,1.82,3.16-2.34,15.47-1.78,19.79-1.86,1.93-13.75-8.98-15.51-10.99-22.92-26.17-19.59-79.02-14.2-111.22,1.98-11.84,5.6-23.25,8.72-34.79,1.86-.43,1.94.63,2.83,1.66,3.67,4.26,9.78,15.33,12.35,20.65,2.98,6.16,20.09,52.21,17.8,54.68Z"/>
  <path class="cls-5" d="M1271.12,602.49c10.94,35.36,14.76,72.14,10,108.99-3.04.55-1.53-.91-2.09-2.36-1.63-4.28-8.52-16.36-8.86-18.19-2.36-12.69,0-32.63-2.09-47.93-.12-.9.61-3.53-1.44-2.52-1.72.85-8.16,15.85-9.28,18.73-5.99,15.42-11.12,36.28-12.22,52.78-.39,5.82,1.23,20.79-.15,24.85-.94,2.77-10.72,3.99-12.79,1.06-2.99-4.22.14-32.96,1.09-39.76,3.85-27.41,18-72.12,35-94,.86-1.11,1-2.07,2.82-1.67Z"/>
  <path class="cls-5" d="M1236.13,767.49c5.08.98,9.08-2,13.97-1.97,2.6,10.25,6.08,23.8,11.79,32.68.63.98-.11,1.79,2.24,1.29,4.08-23.85,9.15-48.78,3.33-72.82-2.51-10.38-8.29-20.5-19.32-23.21l4.53-20.99c29.14,9.91,30.91,49.54,29.5,75.57-1.31,24.16-7.55,52.64-17.54,74.44-16.09-17.43-25.45-41.6-28.5-64.98Z"/>
  <path class="cls-5" d="M1005.88,448.74c.6.49,5.91,10.01,7.44,12.06,10.48,14.06,22.91,26.4,34.63,39.4-.66,12.11-2.43,24.11-1.83,36.28-25.18-24.17-50.84-50.32-69.41-80.08-3.27-5.25-9.72-15.01-11.57-20.44-.83-2.43.86-.97,1.73-.72,6.03,1.7,12.66,5.12,18.74,7.26,3.6,1.27,18.79,5.04,20.27,6.23Z"/>
  <path class="cls-5" d="M83.14,725.49l10.75,20.74c1.43,15.52.89,36.1,6.29,50.71.39,1.06.45,2.4,1.94,2.54,6.79-14.22,12.1-28.12,14.72-43.79s3.31-31.48,2.29-47.21c3.33.18,12.28-.34,13.01,3.5,1.15,6.08.45,25.97-.02,33-1.19,17.72-6.84,40.04-13.52,56.48-4.59,11.29-10.05,22.51-18.97,31.01-4.77-.06-14.46-50.22-15.33-56.65-2.26-16.67-3.12-33.6-1.16-50.33Z"/>
  <path class="cls-5" d="M26.13,670.49c-.2.56-2.12,2.82-2.99,3-2.79-48.25,4.51-93.28,21.24-138.25,2.02-5.43,4.3-12.25,7.74-16.75l-2,214.99c-1.58-.92-2.18-4.94-2.71-6.78-4.45-15.5-4.42-18.81-4.24-34.68.47-41.5-.43-83.05-.05-124.54-1.44-.24-1.35,1.73-1.69,2.78-6.91,21.31-11.42,47.37-13.29,69.72-.78,9.32,1.21,21.53-2.01,30.49Z"/>
  <path class="cls-4" d="M457.13,1264.49c.79.62,1.48,1.86,3,3-2.58,2.64-8.27-1.03-10,2.99,14.82,4.57,28.48,10.29,44.42,8.93,1.93-.16,3.64-1.48,5.34-1.73,6.77-.98,22.32,8.98,30.23,11.32,8.11,2.4,19.03,3.87,27.52,4.48,1.19.09,5.47.83,5.48-.98-4.72-1.84-25.84-8.55-28.05-11.46-.91-1.2-2.53-7.77-1.94-8.55,22.73,7.55,45.31,16.29,65.99,28.5-14.17,1.56-28.4-.38-42.51-1.5-1.1-.09-3.73-.73-3.48.98,13.16,1.66,26.28,4.83,39.5,6,19.01,1.69,38.49-.45,56.97,1.03,3.08.25,16.36,2.4,18.53,3.47.46.23,1.27,1.3.99,1.5-54.33,4.22-108.97-3.95-160.99-19l6.99-1.98-2.99,1.98c4.53-1.95,5.14.79,5.74.93,3.96.92,9.13,2.23,13.01,2.82,1.08.16,4.4,1.17,4.24-.74-9.72-1.26-18.61-6.18-28.17-8.34-10.88-2.45-22.19-3.06-33.25-5.75-16.64-4.05-33.93-10.59-48.57-19.43,5.98-4.37,16.16-6.87,23.47-5.47,2.21.42,6.23,5.17,8.52,6.98Z"/>
  <path class="cls-5" d="M318.13,1181.49c-1.61-2.44-2.85-3.26-5-5,9.24-2.8,21.76-4.34,7.92-13.42-12.2-8-43.1-22.49-57.08-25.92-6.95-1.71-16.29-1.13-21.84-5.66-.24-.2-2.88-2.82-3-3-.5-.76-2.51-5.4-2-5.99,3.33-.12,7.29-1.79,10.5-1.79,13.62,0,43.53,13.86,57.18,19.61,16.63,7,33.12,14.68,49.28,22.72,5.71,4.24,2.57,18.9-1.56,23.36-4.69,5.07-17.3,7.76-23.7,5.89-2.84-.83-6.88-9.5-10.71-10.79Z"/>
  <path class="cls-5" d="M1052.13,1178.49c-10.95,5.16-8.1,15.2-22.55,14.04-9.6-.77-17.55-7.75-18.49-17.5-.21-2.13-.4-10.42.69-11.63,1.21-1.35,13.02-6.86,15.68-8.08,19.27-8.81,71.82-33.53,90.19-34.81,2.34-.16,11.96-.18,12.49,2.52.41,2.07-4.49,6.34-5,8.46-6.1,4.23-13,2.94-19.25,4.25-14.11,2.98-50.31,19.53-62.08,27.92-2.43,1.73-4.86,3.52-3.2,6.83l12.53,6.99c-.32.35-.69.65-1,1Z"/>
  <path class="cls-5" d="M457.13,1264.49c-1.53-5.48-5.97-8.98-7.72-14.78-2.21-7.33-2.19-15.63,2.29-22.16,8.91-13.01,15.2-6.91,25.74-.87,13.4,7.68,47.35,31.66,51.91,46.08,1.07,3.39,1.36,10.52-2.91,11.59-3.8.95-17.64-7.13-22.3-7.87,7.89-7.62-9.9-22.44-15.99-27.5-7.46-6.19-19.46-17.11-19.44.01.02,14.08,12.44,21.32,22.43,28.49-5.9.07-11.32.49-16.98-1.51-2.41-.85-11.89-6.88-14.02-8.48-1.52-1.14-2.21-2.38-3-3Z"/>
  <path class="cls-5" d="M950.1,585.46c-14.92-2.92-29.1-2.41-43.98.52-8.18,1.61-15.85,4.86-23.99,6.51l-1.07-28.39c22.83-8.51,49.12-12.44,72.63-4.67,1.68,2.33-3.25,21.76-3.6,26.04Z"/>
  <path class="cls-5" d="M1106.13,586.49h15.5c1.24,0,6.36-2.32,8.01-2.96l1.29,1.66c2.2,12.63,5.68,25.15,7.07,37.93.73,6.72,2.24,20.39.65,26.41-.83,3.14-14.67,20.52-17.01,19.97-9.7-11.01-6.5-21.83-7.48-34.55-1.25-16.28-4.81-32.51-8.04-48.46Z"/>
  <path class="cls-5" d="M915.97,1253.32l-17.84,2.16c3.36-24.06-6.77-15.37-18.48-5.97-5.71,4.59-18.93,15.95-19.09,23.5-.08,3.85,6.78,3,4.56,5.46-.73.81-18.86,7.12-20.53,7.08-8.12-.2-6.85-10.6-3.9-16,7.5-13.73,30.53-30.79,43.91-39.09,3.57-2.22,20.07-12.24,22.8-11.82,3.46.53,9.46,8,10.77,11.3,3.41,8.6,1.54,15.34-2.2,23.38Z"/>
  <path class="cls-5" d="M258.13,586.49c-5.02,19.49-7.53,39.37-9.03,59.45-.24,3.25.81,7.11.5,9.7-.25,2.11-3.95,10.46-5.21,12.57-.48.8.2,1.63-1.75,1.31-3.25-.54-15.83-16.24-16.46-19.58-.79-4.24-.32-15.17-.04-19.94.92-15.31,5.06-30.55,8-45.51,7.91,1.19,15.96,4.66,23.99,2.01Z"/>
  <path class="cls-5" d="M271.13,1170.49c-2.52-2.33-13.23-10.73-13.99-12.51-.53-1.23.23-1.88,1.48-1.48l52.51,34.5c-13.64-19.13-31.36-34.65-48.51-50.49-.95-1.13-1.01-2.39.95-1.96,8.31,1.84,17.69,7.42,24.09,12.92,9.22,7.92,15.84,17.26,25.47,25.03,2.15,1.74,3.39,2.56,5,5,.21.32-.18,1.96.52,2.94,2.58,3.59,19.79,23.38,16.47,27.06-5.62-2.6-12.88-5.17-18.16-8.11-9.28-5.16-17.11-13.85-26.83-17.88-.73-.3-.66-.49-1-1-.14-.22.37-1.2-.24-1.79-.24-.23-5.01-2.66-5.76-2.21-.37-.3-.66-.68-1-1,.24-2.13.13-2.24-2-2-.34-.32-.68-.66-1-1-2.02-2.1-3.65-4.53-7-5-.34-.32-.65-.68-1-1Z"/>
  <path class="cls-5" d="M1053.13,1177.49c11.62-12.9,33.93-36.14,50.52-39.98,3.1-.72-.42,3.29-1,4.01-12.97,16.08-35.36,28.52-46.76,48.24-.48.82-1.71,2.92.22,2.72-.18-1.81.81-1.85,1.93-2.56,7.17-4.52,19.51-11.56,25.08-17.44.32-.34.71-.62,1-1,1.47,0,2.49-.61,3-2,.37-.18.65-.79,1-1,7.27-4.36,14.17-9.09,21.32-12.99.81-.44.91-3.65,3.68-1.51-1.96,1.29-3.49,4.16-5,5.5-1.87,1.67-5.54,3.45-8,6-.33.34-.68.64-1,1-3.32.21-2.7,2.63-3,3s-.67.66-1,1c-2.17-.18-3.52-.49-3,2-.35.31-.64.69-1,1-2.2-.16-3.52-.52-3,2-.48.39-1.07,1.25-2,2-2.18-.18-3.52-.5-3,2-.31.25-.59.68-1,1-2.17-.18-3.52-.49-3,2-.33.25-.61.7-1,1-2.17-.18-3.52-.49-3,2-.33.25-.61.7-1,1-2.17-.18-3.52-.49-3,2-.33.24-.61.7-1,1-.77-.46-5.52,2-5.75,2.23-.62.64-.15,1.67-.25,1.77-.34.32-.66.67-1,1-.75-.44-5.53,1.99-5.76,2.21-.61.58-.09,1.57-.24,1.79-.34.5-.27.7-1,1-2.5,1.02-1.77.74-3.8,1.91s-19.44,10.92-20.2,10.09c1.62-11.72,11.55-21.78,19.04-30.49.74-.86.74-2.26.96-2.5.31-.35.68-.65,1-1Z"/>
  <path class="cls-2" d="M1132.13,1107.49c-1.03,1.75-1.51,1.9-3,3-9.19,6.78-8.34,6.94-20.24,9.26-1.34.26-1.96,1.86-1.75-.75,24.39-24.58,46.56-51.16,64.99-80.51.28-.45-.03-1.03,1-2l3-1c5.94-4.3,8.6-10.97,13-14,.97.05,1.38-.38,2-1,.34-.33.71-.61,1-1,2.01.6,0,2.99-.49,4.01-10.92,22.82-26.66,42.92-42.54,62.46-6.15,7.57-12.12,13.31-16.98,21.52Z"/>
  <path class="cls-2" d="M25.2,776.58c.19-.25,3.7-1.17,5.48-3.05,5.78-6.09,6.15-19.12,7.95-27.06.25-1.11,0-3.23,1.49-2.98,3.93,15.3,7.7,26.14,1.19,41.67-2.06,4.91-9.89,15.61-13.15,6.79-.6-1.62-3.42-14.75-2.96-15.38Z"/>
  <path class="cls-5" d="M1337.93,776.68c.79,1.33-2.57,17.26-3.42,17.9-3.98,3.04-10.77-6.33-12.17-9.81-5.95-14.8-1.93-27.73,1.8-42.28l5.51,23.97c-.22,4.64,7.53,8.95,8.28,10.22Z"/>
  <path class="cls-5" d="M503.13,1271.48c-11.13-3.48-25.46-.79-29.99-13.98,9.57,2.58,29.7.63,29.99,13.98Z"/>
  <path class="cls-1" d="M42.13,657.49c-2.29-9.17-.38-19.54-1-29,1.79-2.17.92-.05,1,1.48.37,7.48.89,20.44,0,27.52Z"/>
  <path class="cls-1" d="M23.13,712.49c1.98,6.83-.59,4.12-.98,5.68-.38,1.47.92,4.44-1.01,4.32l.99-12.99c.33,1.61.74,2.11,1,3Z"/>
  <path class="cls-4" d="M207.13,1117.49c.38,5.06-5.04-1.41-5.5-2-1.41-1.81-2.33-1.53.5-3,1.45,1.56,3.37,3.31,5,5Z"/>
  <path class="cls-3" d="M54.13,609.49c-1.38-4.81-1.6-13.02-1-18,1.82,5.31,1.04,12.3,1,18Z"/>
  <path class="cls-5" d="M1108.13,1159.49l3,.5c-1,.8-4.75,5.67-5.99,4.5-1.68-1.59,4.01-3.15,2.99-4.99Z"/>
  <path class="cls-2" d="M1322.13,635.49c1.89,1.58,3.58,4.58,0,4,0-1.33-.02-2.67,0-4Z"/>
  <path class="cls-4" d="M211.13,1121.49c.48,3.33-2.78,2.96-1.99-.5l.99-.5c.33.33.66.67,1,1Z"/>
  <path class="cls-2" d="M175.13,1021.49c2.26,3.41-1.64,2.95-1,0h1Z"/>
  <path class="cls-5" d="M1142.13,1131.5c.49.38-1.75,2.65-3,1.98-.49-.38,1.75-2.65,3-1.98Z"/>
  <path class="cls-5" d="M160.12,1067.48h-.98c-.5-4.16,1.48-4.16.98,0Z"/>
  <path class="cls-5" d="M163.13,1068.49c.07.07.38,2.12-.49,1.99-2.73-1.56-.67-3.13.49-1.99Z"/>
  <path class="cls-5" d="M256.13,1154.5c.68.35-.59,1.7-1.99.98-.68-.35.59-1.7,1.99-.98Z"/>
  <path class="cls-4" d="M194.12,1107.48c-.35.68-1.7-.59-.98-1.99.35-.68,1.7.59.98,1.99Z"/>
  <path class="cls-5" d="M802.13,146.49c22.73,18.09,46.47,50.74,58.17,77.33,21.36,48.53,21.29,100.75,8.82,151.68-39.74-7.53-75.03-30.13-102.99-58.52-.44-2.38,1.08-1.2,2.46-1.5,10.58-2.32,21.18-5.36,31.81-6.82,8.27,7.05,17.51,13.74,27.05,19.01,2.61,1.44,17.2,9.27,18.67,7.83,3.92-35.13,1.25-71.18-12.53-103.97-62.83-149.53-265.96-135.01-310.73,20.2-7.83,27.16-9.16,55.09-5.58,83.11.43,1.06.87,1.64,2.17,1.51,1.18-.11,15.15-7.42,17.35-8.69,9.55-5.51,18.01-12.72,26.88-19.2,10.31,2.36,20.88,4.12,31.09,6.9.96.26,3.21-.43,2.35,1.61-.77,1.82-16.72,16.17-19.52,18.49-23.27,19.25-53.22,34.1-82.92,40.07-3.11-11.07-5.68-22.43-7.25-33.86-7.85-57.31,5.08-110.16,38.47-156.91,11.18-15.65,22.92-25.91,36.22-39.28,6.69-3.21,13.57-9.29,20.33-13.17,67.23-38.58,158.48-34.52,219.67,14.17Z"/>
  <path class="cls-5" d="M682.14,644.48l9.85-18.64c12.2-26.54,20.26-54.18,24.32-83.18,9.92-1.71,18.69-7.23,27.81-11.17-.25,46.36-16.56,93.06-39.82,132.67-3.49,5.94-16.12,27.18-20.66,30.36-1.42,1-.53,1.2-2.03,0-3.28-2.63-13.02-18.5-15.9-23.11-38.21-61.11-63.33-152.86-24.39-219.22,2.06-3.51,13.25-20.6,16.28-20.67,4.74-.1,18.13,12.49,22.51,15.47-40.23,45-34,109.85-13.47,162.49,4.63,11.88,11.46,23.04,15.49,35.01Z"/>
  <path class="cls-5" d="M713.14,505.49c-5.92-30.31-22.14-57.37-48.1-74.41-18.3-12.02-47.47-22.2-69.37-23.63-4.43-.29-24.98-.74-27.88.19-3.39,1.09.65,9.39,1.6,12.09,10.17,29.02,28.59,54.37,52.27,73.78-.96,10.68-3.41,21.15-2.53,31.97-1.51.37-2.35-.35-3.56-.93-4.61-2.19-14.68-10.45-18.91-14.09-36.43-31.32-59.18-78.7-66.5-125.94,76.32-19.39,175.08,8.93,204,88.44,1.22,3.36,5.95,17.19,4.5,19.52s-24.46,13.98-25.52,13.01Z"/>
  <path class="cls-5" d="M655.36,539.26c-3.52-3.41.53-23.27-.22-28.77,68.93,19.88,128.79-40.54,143.99-103-30.91-2.99-61.2,3.49-88.53,17.98-2.41-.07-20.22-17.05-23.47-19.97,43.69-25.97,98.3-34.46,147.58-21.08,1.41,1.93-5.97,28.46-7.32,32.83-21.46,69.53-77.45,130.85-155.75,125.22-2.52-.18-15.1-2.07-16.28-3.22Z"/>
  <path class="cls-5" d="M839.09,261.51c1.02,4.29,6.12,26.99,3.42,29.08s-21.78,7.64-26.62,9.16c-96.7,30.46-201.38,26.74-295.83-9.87l4.07-28.39c34.52,11.34,70.43,21.34,106.63,25.86,54.65,6.82,108.43,2.69,161.57-11.14,15.84-4.12,31.09-10.06,46.74-14.69Z"/>
  <path class="cls-5" d="M612.13,52.49c4.45-.03,23.2-11.05,27.01-14.49,2.32-2.09,10.08-10.45,4.34-12.37-5.15-1.73-30.59,6.44-36.38,9.33-4.49,2.24-18.75,12.23-16.9,17.92.45,1.39,4.64,1.68,2.92,3.59-2.02,2.25-25.68,7.58-29.26,6.83-15.39-3.22,6.45-22.53,12.6-25.98,16.45-9.2,67.96-21.74,86.23-19.89,4.88.49,7.07,3.87,7.4,8.67,1.2,17.26-37.4,33.91-50.29,40.56l-111.67,43.81c51.06-6.34,99.75-19.56,147.61-37.95,3.2-.23,16.46,5.18,19.92,6.93.94.48,2.37.63,2.46,2.03-18.3,5.8-35.92,13.47-54.23,19.28-67.83,21.51-139.14,23.78-207.77,41.72,31.9-37.2,76.59-71.22,123.48-87.01,1.42-.48,20.14-6.49,19.51-4.49-4.39,2.62-1.65,10.04-1.98,10.5-.59.81-15.88,5.25-18.98,6.54-23.61,9.86-44,23.12-63.54,39.5l-2.98,3.99c38.7-16.33,78.96-29.83,117.45-46.55,9.02-3.92,15.68-7.56,23.03-12.47Z"/>
  <path class="cls-5" d="M947.13,142.48c-48.72-13.91-99.66-16.57-149.18-26.31-34.09-6.7-67.81-18.67-100.33-30.67-20.32-7.5-40.86-15.56-60.46-24.52,4.28-2.3,13.76-9.92,18.21-9.32,40.11,13.86,78.8,31.92,119.77,43.32,26.2,7.29,53.12,11.51,79.99,15.49l-98.96-38.52c-1.68-.73-23.39-10.15-22.03-11.46l17.41-5,143.59,57.98c-21.87-18.55-44.17-34.77-71.02-45.47-2.95-1.18-18.46-5.48-18.71-6.95-.12-.75.96-2.97.72-4.97-.34-2.89-3.41-4.11-2.51-6.58,55.59,15.29,106.16,49.66,143.51,92.98Z"/>
  <path class="cls-5" d="M562.13,145.49c-9.05,4.34-12.24,2.21-21.54,2.96-40.03,3.22-79.35,16.21-115.39,33.12-1.57,2.2,11.49,20.46,13.96,23.39,13.82,16.41,32.53,31.31,51.86,40.65l-5.89,29.88c-33.13-16.26-70.29-40.7-89.17-73.33-1.87-3.23-8.37-15.53-8.68-18.43-.16-1.52-.12-1.58.86-2.71,1.62-1.88,9.95-6.68,12.69-8.34,28.98-17.54,68.13-30.86,101.29-37.71,26.15-5.4,53.34-8.89,80.01-6.48-4.16,5.64-14.04,9.14-18.55,13.99-1.11,1.19-1.34,2.88-1.45,3Z"/>
  <path class="cls-5" d="M802.13,146.49c-.13-.1-.18-1.97-1.45-3-6.1-4.95-13.09-8.91-19.28-13.71-.83-.64-1.83.02-1.26-2.28,60.71-1.64,123.97,13.09,177.02,42.47,3.64,2.02,15.85,8.63,18,11.05,1.71,1.93-1.96,9.23-3.16,11.82-17.36,37.53-57.43,63.31-92.36,82.62l-1.45-2.52-5.92-27.33c21.18-11.4,42.29-27.43,56.71-46.79,2.16-2.9,7.5-10.42,8.66-13.38.46-1.18.9-1.7.07-2.97-1.52-2.34-27.79-13.04-32.31-14.72-21.59-8.04-47.04-15.05-69.89-18.11-4.85-.65-32.03-2.12-33.36-3.14Z"/>
  <path class="cls-5" d="M774.13,277.48l-34,5.56c-22.01-31.15-38.2-66.26-66.48-92.58-20.19-18.79-43.9-32.02-70.52-39.47,6.93-4.55,23.35-15.03,31.38-14.47,4.94.34,22.52,8.66,27.64,11.44,52.8,28.71,78.22,82.93,111.98,129.51Z"/>
  <path class="cls-5" d="M623.94,282.28c-3.67.63-33.8-4.28-33.78-6.29,24.82-29.78,39.68-67.78,69.35-93.43l19.62,18.43c-21.73,24.68-37.14,54-55.18,81.29Z"/>
  <path class="cls-5" d="M770.13,56.47c-.22-3.02,3.45-2.94,2.61-6.01-4.03-14.69-40.92-25.05-54.62-24.99-1.52,8.47,4.23,12.36,9,17.99-4.69-.22-14.2,5.92-17.93,4.52-6.14-2.3-15.73-13.14-16.11-20.05-.62-11.41,6.69-10.94,15.53-10.46,19.53,1.06,64.27,11.03,80.42,21.58,4.93,3.22,13.12,10.79,14.44,16.65,3.45,15.36-26.79,2.72-33.35.76Z"/>
  <path class="cls-5" d="M760.13,149.5c.32,2.43,0,1.58-1.39,2.09-4.09,1.49-8.84,2.24-13.13,3.88-14.29,5.46-27.87,12.82-40.17,21.89l-20.31-17.4c-.86-3.48,22.18-15.21,26.03-16.93,3.65-1.63,14.26-6.27,17.58-6.5,8.44-.59,23.32,10.12,31.38,12.98Z"/>
  <path class="cls-5" d="M767.14,48.48c-20.66,4.09-39.67,13.64-59.63,19.98-7.05-.67-13.34-5.76-20.38-6.99-.48-2.31.27-1.6,1.28-2.24,4.43-2.82,17.49-6.77,23.2-8.77,10.83-3.78,34.25-12.31,44.93-10.89,3.9.52,11.02,4.3,10.59,8.91Z"/>
  <path class="cls-2" d="M612.13,52.49c-2.1.01-16.99-4.42-16.98-5.5,3.25-3.62,6.45-6.83,11.58-7.42,2.15-.25,18.66,2.28,19.41,2.93,1.71,1.47-.68,1.79-1.31,2.23-3.87,2.68-8.57,5.02-12.7,7.77Z"/>
  <path class="cls-5" d="M983.22,99.59c.54-.48,2.29-.06,3.16.13,2.89.63,16.69,6.08,19.45,7.57,3.8,2.05,4.03,3.98,2.51,7.92-2.81,7.33-15.98,14.36-23.65,13.22-5.18-.77-34.64-22.44-40.89-27.13-13.11-9.82-30.92-23.3-41.2-35.8-3.24-3.94-6.5-7.43-5.48-13.01,1.15-1.17,22.02,6.77,23.94,8.55,1.75,1.62,4.74,8.04,7.08,10.92,6.86,8.44,33.99,31.59,43.61,35.45,3.93,1.57,7.95-1.13,10.4-4.41.82-1.1.87-3.25,1.05-3.41Z"/>
</svg>