<?xml version="1.0" encoding="UTF-8"?>
<svg id="Layer_1" data-name="Layer 1" xmlns="http://www.w3.org/2000/svg" viewBox="0 0 280.32 280.32">
  <defs>
    <style>
      .cls-1 {
        fill: #1b3a5c;
      }

      .cls-2 {
        fill: #f4f5f7;
      }

      .cls-3 {
        fill: #b58f33;
      }

      .cls-4 {
        fill: #233f5a;
      }

      .cls-5 {
        fill: #bc912d;
      }

      .cls-6 {
        fill: #f3f5f6;
      }

      .cls-7 {
        fill: #bd912c;
      }

      .cls-8 {
        fill: #2f4c6a;
      }

      .cls-9 {
        fill: #f4f5f6;
      }

      .cls-10 {
        fill: #284565;
      }

      .cls-11 {
        fill: #b9902e;
      }

      .cls-12 {
        fill: #af8b33;
      }

      .cls-13 {
        fill: #f6f7f8;
      }

      .cls-14 {
        fill: #aa8734;
      }

      .cls-15 {
        fill: #ae8a34;
      }
    </style>
  </defs>
  <path class="cls-1" d="M280.32,280.32H0V0h280.32v280.32ZM144.11,100.97c0-2.18-1.77-3.94-3.94-3.94s-3.94,1.77-3.94,3.94,1.77,3.94,3.94,3.94,3.94-1.77,3.94-3.94ZM173.21,99.18c-3.91.81-3.54,8,2.05,6.85,3.74-.77,3.12-7.92-2.05-6.85ZM104.62,109.41c0-1.97-1.6-3.57-3.57-3.57s-3.57,1.6-3.57,3.57,1.6,3.57,3.57,3.57,3.57-1.6,3.57-3.57ZM140.35,114.79c-27.07,1.37-57.17,14.37-68.63,40.33-1.61,3.64-3.94,10.1-4.25,13.99-.11,1.35.27,3.72,2.13,2.61.6-.36,1.29-5.98,1.55-7.09,4.6-20.2,22.5-34.97,41.28-41.76,32.91-11.88,71.99-4.88,98.29,18.11,2.99.56,2.36-1.19.84-2.76-4.76-4.9-13.52-9.98-19.72-12.92-16.08-7.63-33.63-11.43-51.5-10.52ZM105.12,147.12c-.68-6.53-9.75-8.12-13.25-2.81-4.94,7.52,2.8,17.98,10.59,12.51,1.01-.71,2.9-3.38,2.9-4.54v-3.48h-6.84c-.57,0-.31,2.37-.36,2.88h3.36c-.16,2.47-2.42,3.28-4.63,2.82-3.6-.74-4.23-10.53,1.87-9.79,2.35.29,2.33,2.4,2.51,2.4h3.84ZM119.46,141.42c-.41-.36-3.39-.48-3.68-.07l-.11.37,4.1,15.95c.82-.11,3.52.3,3.95-.23l2.52-9.6c.63-.11.37.09.5.34.26.51.52,1.36.7,1.93.45,1.44,1.27,6.43,1.9,7.22s3.04.76,3.75.12c.55-1.83,4.82-15.42,4.32-16.11-.3-.41-3.35-.28-3.68.07-.52.53-2.02,8.88-2.46,10.27-.54-.32-.68-1.33-.84-1.92-.74-2.69-1.09-5.5-1.91-8.17-.28-.37-3.58-.34-3.75-.09-.13.18-.29.94-.39,1.25-.86,2.78-1.34,5.73-1.99,8.57-.07.29-.07.76-.47.36-.86-.86-1.68-9.57-2.46-10.26ZM155.94,141.66c-1.05-.63-3.97-.93-4.72.09-2.01,5.22-3.83,10.54-5.3,15.94,1-.23,2.76.63,3.6.12.53-.32.97-2.99,1.22-3.7,1.34.05,2.87-.16,4.19-.04,2.84.26,1.67,2.8,2.89,3.59.85.55,2.45.15,3.46.26l-5.34-16.26ZM171.84,141.72v15.96h3.84v-5.4c0-.08.27-.28.4-.33,2.89-.94,3.37,4.61,4.65,5.59,1.1.84,2.82-.03,4.07.13.55-.52-2.92-5.08-2.9-6.12,0-.33,1.32-1.14,1.7-1.68,2.33-3.23.31-7.39-3.35-8.4-1.23-.34-7-.66-7.92-.23-.11.05-.46.4-.48.48ZM195.6,157.68c.74.2,3.54.39,3.81-.39l.04-15.1c-.19-1.56-2.71-1.04-3.85-.83v16.32ZM130.8,171.84c.29-1.65-1.76-2.91-3.24-2.9-4.29.02-4.29,8.04,0,7.95,3.73-.08,5.43-5.15.37-4.33-.24,1.75.18,1.44,1.68,1.68-.31,2.07-3.37,1.68-3.79-.17-.49-2.17.26-4.3,2.85-3.57.73.21.9,1.72,2.14,1.33ZM139.37,169.02c-3.38.7-3.71,7.18.25,7.81,5.75.91,5.16-8.93-.25-7.81ZM150.96,169.2h-1.44v7.44h4.8s.05-.96,0-.96h-3.36v-6.48ZM165.12,169.2h-4.68s-.36.33-.36.36v6.96c0,.44,1.15.44,1.46-.04.44-.69.09-2.83.22-2.96h2.88c.27-1.81-1.75-1.25-2.88-1.2v-1.92s3.36,0,3.36,0v-1.2Z"/>
  <path class="cls-11" d="M140.35,114.79c17.87-.9,35.41,2.89,51.5,10.52,6.2,2.94,14.96,8.02,19.72,12.92,1.52,1.57,2.15,3.31-.84,2.76-26.3-22.99-65.38-30-98.29-18.11-18.78,6.78-36.69,21.56-41.28,41.76-.25,1.11-.95,6.73-1.55,7.09-1.86,1.11-2.24-1.26-2.13-2.61.31-3.89,2.64-10.35,4.25-13.99,11.46-25.96,41.57-38.96,68.63-40.33Z"/>
  <path class="cls-2" d="M119.46,141.42c.78.69,1.6,9.4,2.46,10.26.4.4.41-.07.47-.36.65-2.84,1.13-5.79,1.99-8.57.09-.31.26-1.07.39-1.25.18-.25,3.48-.28,3.75.09.83,2.67,1.17,5.48,1.91,8.17.16.59.3,1.6.84,1.92.43-1.38,1.93-9.73,2.46-10.27.34-.35,3.39-.48,3.68-.07.5.69-3.77,14.28-4.32,16.11-.71.64-3.14.66-3.75-.12s-1.45-5.79-1.9-7.22c-.18-.57-.44-1.42-.7-1.93-.13-.25.13-.45-.5-.34l-2.52,9.6c-.44.53-3.13.11-3.95.23l-4.1-15.95.11-.37c.3-.41,3.27-.29,3.68.07Z"/>
  <path class="cls-6" d="M105.12,147.12h-3.84c-.19,0-.16-2.12-2.51-2.4-6.1-.74-5.47,9.05-1.87,9.79,2.21.45,4.47-.36,4.63-2.82h-3.36c.05-.51-.21-2.88.36-2.88h6.84v3.48c0,1.16-1.89,3.84-2.9,4.54-7.79,5.47-15.54-5-10.59-12.51,3.49-5.31,12.57-3.72,13.25,2.81Z"/>
  <path class="cls-13" d="M171.84,141.72c.02-.08.37-.42.48-.48.92-.43,6.69-.11,7.92.23,3.66,1.01,5.68,5.17,3.35,8.4-.38.53-1.7,1.35-1.7,1.68-.02,1.05,3.45,5.61,2.9,6.12-1.25-.16-2.97.71-4.07-.13-1.29-.98-1.76-6.53-4.65-5.59-.13.04-.4.24-.4.33v5.4h-3.84v-15.96ZM175.68,149.52c2.12,0,5.31.09,5.3-2.76-.01-2.69-3.34-2.64-5.3-2.52v5.28Z"/>
  <path class="cls-2" d="M155.94,141.66l5.34,16.26c-1-.12-2.61.28-3.46-.26-1.22-.79-.06-3.33-2.89-3.59-1.32-.12-2.84.09-4.19.04-.25.71-.69,3.38-1.22,3.7-.84.51-2.6-.36-3.6-.12,1.47-5.4,3.29-10.72,5.3-15.94.75-1.01,3.68-.71,4.72-.09ZM155.52,151.44c-.38-1.6-.69-3.8-1.32-5.28-.14-.33-.26-.73-.72-.72-.35,0-1.72,5.24-1.8,6h3.84Z"/>
  <path class="cls-9" d="M195.6,157.68v-16.32c1.15-.21,3.66-.74,3.85.83l-.04,15.1c-.27.78-3.07.59-3.81.39Z"/>
  <circle class="cls-2" cx="140.16" cy="100.97" r="3.94"/>
  <circle class="cls-5" cx="101.04" cy="109.41" r="3.57"/>
  <path class="cls-7" d="M173.21,99.18c5.17-1.07,5.79,6.08,2.05,6.85-5.59,1.15-5.96-6.04-2.05-6.85Z"/>
  <path class="cls-12" d="M130.8,171.84c-1.24.39-1.4-1.13-2.14-1.33-2.59-.74-3.34,1.39-2.85,3.57.42,1.86,3.48,2.24,3.79.17-1.51-.24-1.92.07-1.68-1.68,5.06-.82,3.36,4.25-.37,4.33-4.28.09-4.28-7.93,0-7.95,1.48,0,3.54,1.25,3.24,2.9Z"/>
  <path class="cls-14" d="M139.37,169.02c5.4-1.12,6,8.72.25,7.81-3.96-.62-3.63-7.1-.25-7.81ZM139.86,169.96c-2.05.42-3.18,5.25-.28,5.71,4.25.67,3.62-6.39.28-5.71Z"/>
  <path class="cls-3" d="M165.12,169.2v1.2h-3.36v1.92c1.14-.05,3.15-.61,2.88,1.2h-2.88c-.13.13.22,2.27-.22,2.96-.31.49-1.46.48-1.46.04v-6.96s.33-.36.36-.36h4.68Z"/>
  <path class="cls-15" d="M150.96,169.2v6.48h3.36s.05.96,0,.96h-4.8v-7.44h1.44Z"/>
  <path class="cls-10" d="M175.68,149.52v-5.28c1.96-.12,5.29-.18,5.3,2.52.01,2.85-3.18,2.77-5.3,2.76Z"/>
  <path class="cls-8" d="M155.52,151.44h-3.84c.09-.77,1.45-6,1.8-6,.45,0,.57.39.72.72.63,1.48.94,3.68,1.32,5.28Z"/>
  <path class="cls-4" d="M139.86,169.96c3.34-.69,3.97,6.37-.28,5.71-2.9-.46-1.77-5.28.28-5.71Z"/>
</svg>